<?xml version="1.0" encoding="utf-8"?>
<!-- Generator: Adobe Illustrator 23.1.1, SVG Export Plug-In . SVG Version: 6.00 Build 0)  -->
<svg version="1.1" xmlns="http://www.w3.org/2000/svg" xmlns:xlink="http://www.w3.org/1999/xlink" x="0px" y="0px"
	 viewBox="0 0 999.28 861.89" style="enable-background:new 0 0 999.28 861.89;" xml:space="preserve">
<style type="text/css">
	.st0{fill:#03063F;}
	.st1{fill:none;stroke:#17FFEE;stroke-width:4;stroke-linecap:round;stroke-linejoin:round;stroke-miterlimit:10;}
	.st2{fill:#FFFFFF;}
	.st3{font-family:'PingFangSC-Medium-GBpc-EUC-H';}
	.st4{font-size:14px;}
	.st5{fill:#17FFEE;}
	.st6{fill:none;stroke:#9D40FF;stroke-width:4;stroke-linecap:round;stroke-linejoin:round;stroke-miterlimit:10;}
	.st7{fill:#9D40FF;}
	.st8{fill:none;stroke:#1F8AFF;stroke-width:4;stroke-linecap:round;stroke-linejoin:round;stroke-miterlimit:10;}
	.st9{opacity:0.5;fill:url(#SVGID_1_);stroke:#71EBFF;stroke-miterlimit:10;}
	.st10{opacity:0.5;fill:url(#SVGID_2_);stroke:#71EBFF;stroke-miterlimit:10;}
	.st11{opacity:0.5;fill:url(#SVGID_3_);stroke:#71EBFF;stroke-miterlimit:10;}
	.st12{opacity:0.5;fill:url(#SVGID_4_);stroke:#71EBFF;stroke-miterlimit:10;}
	.st13{opacity:0.5;fill:url(#SVGID_5_);stroke:#71EBFF;stroke-miterlimit:10;}
	.st14{opacity:0.5;fill:url(#SVGID_6_);stroke:#71EBFF;stroke-miterlimit:10;}
	.st15{opacity:0.5;fill:url(#SVGID_7_);stroke:#71EBFF;stroke-miterlimit:10;}
	.st16{opacity:0.5;fill:url(#SVGID_8_);stroke:#71EBFF;stroke-miterlimit:10;}
	.st17{opacity:0.5;fill:url(#SVGID_9_);stroke:#71EBFF;stroke-miterlimit:10;}
	.st18{opacity:0.5;fill:url(#SVGID_10_);stroke:#71EBFF;stroke-miterlimit:10;}
	.st19{opacity:0.5;fill:url(#SVGID_11_);stroke:#71EBFF;stroke-miterlimit:10;}
	.st20{opacity:0.5;fill:url(#SVGID_12_);stroke:#71EBFF;stroke-miterlimit:10;}
	.st21{opacity:0.5;fill:url(#SVGID_13_);stroke:#71EBFF;stroke-miterlimit:10;}
	.st22{opacity:0.5;fill:url(#SVGID_14_);stroke:#71EBFF;stroke-miterlimit:10;}
	.st23{opacity:0.5;fill:url(#SVGID_15_);stroke:#71EBFF;stroke-miterlimit:10;}
	.st24{opacity:0.5;fill:url(#SVGID_16_);stroke:#71EBFF;stroke-miterlimit:10;}
	.st25{opacity:0.5;fill:url(#SVGID_17_);stroke:#71EBFF;stroke-miterlimit:10;}
	.st26{opacity:0.5;fill:url(#SVGID_18_);stroke:#71EBFF;stroke-miterlimit:10;}
	.st27{opacity:0.5;fill:url(#SVGID_19_);stroke:#71EBFF;stroke-miterlimit:10;}
	.st28{opacity:0.5;fill:url(#SVGID_20_);stroke:#71EBFF;stroke-miterlimit:10;}
	.st29{opacity:0.5;fill:url(#SVGID_21_);stroke:#71EBFF;stroke-miterlimit:10;}
	.st30{opacity:0.5;fill:url(#SVGID_22_);stroke:#71EBFF;stroke-miterlimit:10;}
	.st31{opacity:0.5;fill:url(#SVGID_23_);stroke:#71EBFF;stroke-miterlimit:10;}
	.st32{opacity:0.5;fill:url(#SVGID_24_);stroke:#71EBFF;stroke-miterlimit:10;}
	.st33{opacity:0.5;fill:url(#SVGID_25_);stroke:#71EBFF;stroke-miterlimit:10;}
	.st34{opacity:0.5;fill:url(#SVGID_26_);stroke:#71EBFF;stroke-miterlimit:10;}
	.st35{opacity:0.5;fill:url(#SVGID_27_);stroke:#71EBFF;stroke-miterlimit:10;}
	.st36{opacity:0.5;fill:url(#SVGID_28_);stroke:#71EBFF;stroke-miterlimit:10;}
	.st37{opacity:0.5;fill:url(#SVGID_29_);stroke:#71EBFF;stroke-miterlimit:10;}
	.st38{opacity:0.5;fill:url(#SVGID_30_);stroke:#71EBFF;stroke-miterlimit:10;}
	.st39{opacity:0.5;fill:url(#SVGID_31_);stroke:#71EBFF;stroke-miterlimit:10;}
	.st40{opacity:0.5;fill:url(#SVGID_32_);stroke:#71EBFF;stroke-miterlimit:10;}
	.st41{opacity:0.5;fill:url(#SVGID_33_);stroke:#71EBFF;stroke-miterlimit:10;}
	.st42{opacity:0.5;fill:url(#SVGID_34_);stroke:#71EBFF;stroke-miterlimit:10;}
	.st43{opacity:0.5;fill:url(#SVGID_35_);stroke:#71EBFF;stroke-miterlimit:10;}
	.st44{opacity:0.5;fill:url(#SVGID_36_);stroke:#71EBFF;stroke-miterlimit:10;}
	.st45{opacity:0.5;fill:url(#SVGID_37_);stroke:#71EBFF;stroke-miterlimit:10;}
	.st46{opacity:0.5;fill:url(#SVGID_38_);stroke:#71EBFF;stroke-miterlimit:10;}
	.st47{opacity:0.5;fill:url(#SVGID_39_);stroke:#71EBFF;stroke-miterlimit:10;}
	.st48{opacity:0.5;fill:url(#SVGID_40_);stroke:#71EBFF;stroke-miterlimit:10;}
	.st49{opacity:0.5;fill:url(#SVGID_41_);stroke:#71EBFF;stroke-miterlimit:10;}
	.st50{opacity:0.5;fill:url(#SVGID_42_);stroke:#71EBFF;stroke-miterlimit:10;}
	.st51{opacity:0.5;fill:url(#SVGID_43_);stroke:#71EBFF;stroke-miterlimit:10;}
	.st52{opacity:0.5;fill:url(#SVGID_44_);stroke:#71EBFF;stroke-miterlimit:10;}
	.st53{opacity:0.5;fill:url(#SVGID_45_);stroke:#71EBFF;stroke-miterlimit:10;}
	.st54{opacity:0.5;fill:url(#SVGID_46_);stroke:#71EBFF;stroke-miterlimit:10;}
	.st55{opacity:0.5;fill:url(#SVGID_47_);stroke:#71EBFF;stroke-miterlimit:10;}
	.st56{opacity:0.5;fill:url(#SVGID_48_);stroke:#71EBFF;stroke-miterlimit:10;}
	.st57{opacity:0.5;fill:url(#SVGID_49_);stroke:#71EBFF;stroke-miterlimit:10;}
	.st58{opacity:0.5;fill:url(#SVGID_50_);stroke:#71EBFF;stroke-miterlimit:10;}
	.st59{opacity:0.5;fill:url(#SVGID_51_);stroke:#71EBFF;stroke-miterlimit:10;}
	.st60{opacity:0.5;fill:url(#SVGID_52_);stroke:#71EBFF;stroke-miterlimit:10;}
	.st61{opacity:0.5;fill:url(#SVGID_53_);stroke:#71EBFF;stroke-miterlimit:10;}
	.st62{opacity:0.5;fill:url(#SVGID_54_);stroke:#71EBFF;stroke-miterlimit:10;}
	.st63{opacity:0.5;fill:url(#SVGID_55_);stroke:#71EBFF;stroke-miterlimit:10;}
	.st64{opacity:0.5;fill:url(#SVGID_56_);stroke:#71EBFF;stroke-miterlimit:10;}
	.st65{opacity:0.5;fill:url(#SVGID_57_);stroke:#71EBFF;stroke-miterlimit:10;}
	.st66{opacity:0.5;fill:url(#SVGID_58_);stroke:#71EBFF;stroke-miterlimit:10;}
	.st67{opacity:0.5;fill:url(#SVGID_59_);stroke:#71EBFF;stroke-miterlimit:10;}
	.st68{opacity:0.5;fill:url(#SVGID_60_);stroke:#71EBFF;stroke-miterlimit:10;}
	.st69{opacity:0.5;fill:url(#SVGID_61_);stroke:#71EBFF;stroke-miterlimit:10;}
	.st70{opacity:0.5;fill:url(#SVGID_62_);stroke:#71EBFF;stroke-miterlimit:10;}
	.st71{opacity:0.5;fill:url(#SVGID_63_);stroke:#71EBFF;stroke-miterlimit:10;}
	.st72{opacity:0.5;fill:url(#SVGID_64_);stroke:#71EBFF;stroke-miterlimit:10;}
	.st73{opacity:0.5;fill:url(#SVGID_65_);stroke:#71EBFF;stroke-miterlimit:10;}
	.st74{opacity:0.5;fill:url(#SVGID_66_);stroke:#71EBFF;stroke-miterlimit:10;}
	.st75{opacity:0.5;fill:url(#SVGID_67_);stroke:#71EBFF;stroke-miterlimit:10;}
	.st76{font-size:16px;}
	.st77{fill:#B3B3B3;}
	.st78{fill:none;stroke:#17FFEE;stroke-width:8;stroke-linecap:round;stroke-linejoin:round;stroke-miterlimit:10;}
	.st79{fill:none;stroke:#1F8AFF;stroke-width:8;stroke-linecap:round;stroke-linejoin:round;stroke-miterlimit:10;}
</style>
<g id="图层_2">
</g>
<g id="图层_6">
	<rect x="-0.36" y="0.94" class="st0" width="1000" height="860"/>
</g>
<g id="图层_8">
	<line class="st1" x1="68.64" y1="195.94" x2="96.64" y2="195.94"/>
	<text transform="matrix(1 0 0 1 114.8556 201.9796)"><tspan x="0" y="0" class="st2 st3 st4">2019-2021年创建乡村振兴跨区域精品带</tspan><tspan x="252.29" y="0" class="st5 st3 st4">2</tspan><tspan x="260.69" y="0" class="st2 st3 st4">条 </tspan></text>
	<line class="st6" x1="68.64" y1="161.94" x2="96.64" y2="161.94"/>
	<text transform="matrix(1 0 0 1 114.8556 167.9796)"><tspan x="0" y="0" class="st2 st3 st4">2018-2019年建设乡村振兴示范带</tspan><tspan x="210.29" y="0" class="st7 st3 st4">53</tspan><tspan x="227.09" y="0" class="st2 st3 st4">条</tspan></text>
	<line class="st8" x1="68.64" y1="225.94" x2="96.64" y2="225.94"/>
	<text transform="matrix(1 0 0 1 114.8556 231.9796)" class="st2 st3 st4">2019-2020年创建“两山”理念实践创新基地乡村振兴精品带</text>
</g>
<g id="图层_1">
	<radialGradient id="SVGID_1_" cx="358.7454" cy="578.6102" r="121.7108" gradientUnits="userSpaceOnUse">
		<stop  offset="0" style="stop-color:#0096D8;stop-opacity:0"/>
		<stop  offset="0.8734" style="stop-color:#0096D8;stop-opacity:0.8734"/>
		<stop  offset="1" style="stop-color:#0096D8"/>
	</radialGradient>
	<path class="st9" d="M254.83,493.88c0,0-1.04-3.78,2.26-5.62c3.3-1.84,7.71-4.61,12.07-4.55c4.37,0.06,2.26-5.62,4.44-5.59
		s5.46,0.07,5.46,0.07s5.53-5.58,6.65-7.45c1.12-1.87,1.14-3.75,0.07-5.65c-1.07-1.9,6.61-4.62,7.69-3.67
		c1.08,0.96,1.06,2.84,1.04,3.78s5.45,1.01,5.45,1.01s-0.06,4.71,2.12,4.73c2.18,0.03,1.16-5.63,4.49-9.36s6.55,0.08,9.83,0.13
		c3.28,0.04,3.23,3.81,3.17,8.51s-0.06,4.71-0.1,7.53c-0.04,2.82-2.27,6.56-2.27,6.56s7.6,3.86,8.66,5.76s3.2,5.69,5.4,4.78
		c2.2-0.91,3.23,3.81,5.4,4.78c2.17,0.97-0.12,9.41-0.15,11.29c-0.02,1.88-1.08-0.96,1.07,1.9c2.15,2.85,2.08,8.5,7.52,9.51
		c5.45,1.01,6.58-1.8,5.5-2.75s-3.24-2.87,0.05-3.76c3.29-0.9,2.16,1.91,4.33,2.88c2.17,0.97-1.04-3.78,2.23-3.74
		c3.28,0.04,3.24,2.87,5.41,3.84c2.17,0.97,5.46,0.07,7.66-0.84c2.2-0.91,0.06-4.71,3.35-5.61c3.29-0.9,4.37,0.06,6.53,1.97
		c2.16,1.91-2.24,4.68-0.06,4.71s5.41,3.84,4.32,3.82c-1.09-0.01-3.28-0.04-1.12,1.87c2.16,1.91,1.03,4.72-0.1,7.53
		c-1.13,2.81-2.1,11.37-0.16,12.24c4.34,1.94,6.52,2.91,6.49,4.79c-0.02,1.88,3.25,1.92,4.32,3.82c1.07,1.9-2.24,4.68-1.18,6.57
		s1.07,1.9,3.24,2.87c2.17,0.97,7.65,0.1,9.82,1.07c2.17,0.97-1.15,4.69-0.08,6.59s5.44,1.95,6.49,4.79
		c1.06,2.84-1.18,6.57-0.11,8.47s5.45,1.01,7.62,1.98s4.32,3.82,5.39,5.72c1.07,1.9,4.32,3.82,5.4,4.78c1.08,0.96,4.36,1,8.73,1.05
		c4.37,0.06,1.06,2.84-0.06,4.71c-1.12,1.87,2.21-1.85,4.37,0.06c2.16,1.91-1.12,1.87-0.05,3.76c1.07,1.9,4.39-1.83,6.55,0.08
		c2.16,1.91,3.19,6.63,3.14,10.4c-0.05,3.76,1.06,2.84,4.37,0.06s7.62,1.98,7.61,2.92c-0.01,0.94-2.23,3.74,1.03,4.72
		c3.26,0.98,1.12-1.87,3.3-1.84s2.18,0.03,3.24,2.87c1.06,2.84,6.58-1.8,9.77,4.83s-2.28,7.5-4.49,9.36
		c-1.1,0.93-3.75,4.66-5.52,4.64c-1.77-0.02-3.79-2.87-5.41-3.84c-3.25-1.92-5.46-0.07-7.67,1.78c-2.21,1.85-5.47,0.87-8.74-0.11
		c-3.26-0.98-9.83-0.13-10.95,1.74s-0.07,5.65-0.1,7.53c-0.01,0.94-0.45,3.05-1.14,3.75s-1.64-0.02-3.28-0.04
		c-3.28-0.04-7.61-2.92-9.82-1.07c-2.47,2.07-0.08,6.59-2.28,7.5c-2.2,0.91-9.9,5.52-9.94,8.34c-0.02,1.19-1.69,1.25-2.46,2.17
		c-1.05,1.26-1.35,3.29-2,4.37c-0.52,0.86-1.94-0.37-2.19,0.16c-0.97,2,0.59,3.78-1.15,4.51c-2.2,0.91-12.94-13.35-15.12-13.37
		c-2.18-0.03-3.25-1.92-3.23-3.81c0.02-1.88-3.24-2.87-5.44-1.95c-2.2,0.91-1.13,2.81-2.22,2.8c-1.09-0.01-5.47,0.87-8.76,1.77
		c-0.75,0.21-5.47,0.82-4.39,1.83c0.41,0.38,2.67,0.46,3.26,0.98c2.16,1.91-4.42,3.71-6.64,6.5c-2.22,2.8-4.53,3.29-5.51,3.69
		c-2.2,0.91-3.29,0.9-2.22,2.8c1.07,1.9,6.49,4.79,6.47,6.67c-0.02,1.88-3.29,0.9-5.47,0.87c-4.5-0.06-5.46-0.07-5.46-0.07
		s-3.28-0.04-5.46-0.07c-2.18-0.03-1.09-0.01-2.21,1.85c-1.12,1.87-2.2,0.91-4.37-0.06s0,0-2.2,0.91s-1.12,1.87-2.23,3.74
		c-1.12,1.87-3.26-0.98-4.34-1.94s0.01-0.94,1.14-3.75s-4.17-0.26-5.45-1.01c-6.5-3.85-8.73-1.05-7.67,1.78
		c1.06,2.84,5.38,6.66,3.19,6.63c-2.18-0.03-2.18-0.03-6.54-1.03c-2.36-0.54-2.17-0.97-4.38,0.89c-2.21,1.85-6.47-6.67-9.76-5.77
		c-3.29,0.9-1.13,2.81-2.23,3.74c-1.1,0.93-4.36-1-6.54-1.03s-1-7.54,0.11-8.47c1.1-0.93,5.47-0.87,5.47-0.87s-1.06-2.84-4.32-3.82
		c-3.26-0.98-6.52-2.91-3.2-5.69c3.31-2.78-3.26-0.98-5.44-1.95c-2.17-0.97-2.15-2.85-2.12-4.73c0.02-1.88-2.16-1.91-4.34-1.94
		c-2.18-0.03,6.6-3.68,7.72-5.55c1.12-1.87-4.37-0.06-6.54-1.03c-1.09-0.48-0.55-2.75-1.09-4.25c-0.54-1.5-2.17-2.22-3.18-3.34
		c-4.31-4.76-2.15-2.85-4.32-3.82s-5.42-2.89-5.42-2.89c2.26-5.62-1.02-5.66-1.02-5.66s-3.22-4.75-5.39-5.72
		c-2.17-0.97-2.15-2.85,1.14-3.75c3.29-0.9,4.42-3.71,4.42-3.71l1.15-4.69c0,0,1.43-3.05,1.75-6.12c0.3-2.82-0.51-5.65-0.5-6.1
		c0.01-0.94,2.22-2.8,1.15-4.69c-1.07-1.9-4.34-1.94-3.23-3.81c0.46-0.76,3.75-4.15,3.35-5.61c-0.26-0.96-1.57-0.04-2.83-0.86
		c-1.49-0.97-2.92-3.62-2.57-3.91c1.1-0.93-1.06-2.84-2.14-3.79c-1.08-0.96-1.04-3.78-2.14-3.79c-1.09-0.01,4.32,3.82,1.06,2.84
		c-3.26-0.98-6.55-0.08-8.74-0.11c-2.18-0.03-1.09-0.01-2.15-2.85c-1.06-2.84,4.48-8.41,5.61-11.22c1.13-2.81,2.24-4.68-2.12-4.73
		c-4.37-0.06-16.37-1.15-16.32-4.92c0.05-3.76,1.16-5.63,0.11-8.47s-3.17-8.51,1.21-9.4c4.38-0.89,6.61-4.62,5.55-6.52
		c-1.07-1.9-1.07-1.9-1-7.54c0.05-4.21-4.32-3.82-3.2-5.69c1.12-1.87,2.21-1.85,4.42-3.71c1.1-0.93-0.78-2.83,0.06-4.71
		c0.84-1.87,4.42-3.71,3.34-4.66c-2.16-1.91-3.22-4.75-3.18-7.57c0.04-2.82,4.44-5.59,7.72-5.55
		C253.67,498.57,254.83,493.88,254.83,493.88z"/>
	<radialGradient id="SVGID_2_" cx="412.3567" cy="577.8629" r="0.6611" gradientUnits="userSpaceOnUse">
		<stop  offset="0" style="stop-color:#0096D8;stop-opacity:0"/>
		<stop  offset="0.8734" style="stop-color:#0096D8;stop-opacity:0.8734"/>
		<stop  offset="1" style="stop-color:#0096D8"/>
	</radialGradient>
	<path class="st10" d="M412.26,578.79L412.26,578.79c0.11-0.62,0.19-1.24,0.2-1.86C412.44,577.55,412.36,578.17,412.26,578.79z"/>
	<radialGradient id="SVGID_3_" cx="412.4341" cy="576.3765" r="0.2967" gradientUnits="userSpaceOnUse">
		<stop  offset="0" style="stop-color:#0096D8;stop-opacity:0"/>
		<stop  offset="0.8734" style="stop-color:#0096D8;stop-opacity:0.8734"/>
		<stop  offset="1" style="stop-color:#0096D8"/>
	</radialGradient>
	<path class="st11" d="M412.46,576.8c0-0.28-0.02-0.56-0.05-0.84C412.44,576.23,412.46,576.51,412.46,576.8z"/>
	<radialGradient id="SVGID_4_" cx="394.5435" cy="477.3779" r="96.7194" gradientUnits="userSpaceOnUse">
		<stop  offset="0" style="stop-color:#0096D8;stop-opacity:0"/>
		<stop  offset="0.8734" style="stop-color:#0096D8;stop-opacity:0.8734"/>
		<stop  offset="1" style="stop-color:#0096D8"/>
	</radialGradient>
	<path class="st12" d="M416.17,574.47c-0.36-1.51-2.79-8.89,1.57-7.89c4.36,1,5.44,1.95,7.67-1.78s2.22-2.8,5.51-3.69
		c3.29-0.9,4.45-6.53,1.2-8.46c-3.25-1.92-3.25-1.92-3.24-2.87s0.12-9.41,0.16-12.24c0.04-2.82,4.38-0.89,5.5-2.75
		s2.24-4.68,0.1-7.53c-2.15-2.85,3.41-10.31,5.57-8.4c2.16,1.91,1.06,2.84,3.24,2.87c2.18,0.03,3.92-0.5,5.48-1.81
		c2.21-1.85,1.1-0.93,3.29-0.9c2.18,0.03,5.41,3.84,6.54,1.03s1.12-1.87,4.39-1.83c3.28,0.04,1.12-1.87,1.14-3.75
		c0.02-1.88,3.28,0.04,4.37,0.06c1.09,0.01,0.02-1.88,2.22-2.8c2.2-0.91,3.25,1.92,5.46,0.07s4.42-3.71,3.35-5.61
		c-1.07-1.9,2.23-3.74,3.35-5.61s4.4-2.77,6.61-4.62c2.21-1.85-1.06-2.84-4.32-3.82c-3.26-0.98-2.17-0.97-4.32-3.82
		c-2.15-2.85-3.24-2.87-5.39-5.72c-2.15-2.85-2.1-6.62-5.38-6.66c-3.28-0.04-2.17-0.97-2.12-4.73c0.05-3.76-4.33-2.88-6.5-3.85
		c-2.17-0.97-2.17-0.97-3.24-2.87c-1.07-1.9,0.04-2.82,3.35-5.61c3.31-2.78,5.67-15.93,4.61-18.77c-1.06-2.84-1.04-3.78-1.02-5.66
		c0.02-1.88,5.5-2.75,6.6-3.68c1.1-0.93,0.02-1.88,2.24-4.68c2.22-2.8,4.38-0.89,5.48-1.81c0.71-0.59,0.74-2.73-0.4-4.95
		c-0.64-1.25-2.39-2.54-2.77-3.56c-1.06-2.84,2.21-1.85,3.32-3.72c1.12-1.87,2.31-9.38-3.16-9.45c-5.46-0.07-9.81-2.01-9.81-2.01
		s-1.04-3.78-5.39-5.72c-4.34-1.94-3.23-3.81-2.08-8.5c1.15-4.69-2.12-4.73-6.49-4.79c-4.37-0.06-6.59,2.74-9.85,1.76
		c-3.26-0.98-4.34-1.94-8.7-2.94c-4.36-1-8.73-1.05-8.76,1.77c-0.04,2.82-2.23,3.74-4.44,5.59c-2.21,1.85-1.07-1.9-3.23-3.81
		c-2.16-1.91-3.34,4.66-3.35,5.61c-0.01,0.94,1.06,2.84-0.06,4.71c-1.12,1.87-6.55-0.08-9.83-0.13c-3.28-0.04-1.15,4.69-5.53,5.58
		c-4.38,0.89-7.6-3.86-8.69-3.88c-1.09-0.01-0.02,1.88-1.13,2.81s-13.14,2.66-15.3,0.74c-2.16-1.91-1-7.54,0.13-10.35
		c0.85-2.11-0.89-5.19-4.2-6.16c-1.11-0.32-3.37,0.41-4.46,0.4c-4.37-0.06-11.02,7.39-14.31,8.29c-3.29,0.9-6.59,2.74-8.74-0.11
		c-2.15-2.85-3.17-8.51-5.35-8.54c-2.18-0.03-2.2,0.91-3.32,3.72c-1.13,2.81,0.98,8.48-1.2,8.46c-2.18-0.03-2.16-1.91-2.12-4.73
		c0.04-2.82-4.34-1.94-8.74-0.11s-2.24,4.68,1.01,6.6s5.38,6.66,2.09,7.56c-3.29,0.9-1.16,5.63-5.55,6.52s-5.42-2.89-8.69-3.88
		s-8.79,3.65-8.82,6.48c-0.04,2.82-1.14,3.75,1.03,4.72s4.34,1.94,3.19,6.63c-1.15,4.69-5.26,9.23-4.51,11.24
		c1.06,2.84-0.05,3.76-1.15,4.69c-1.1,0.93-1.16,5.63-0.1,7.53c1.07,1.9,3.26,0.98,3.24,2.87s-3.29,0.9-4.4,2.77
		s1.06,2.84,1.02,5.66c-0.04,3.39-0.08,6.59,2.04,11.32c2.18,0.03,1.16-5.63,4.49-9.36s6.55,0.08,9.83,0.13
		c3.28,0.04,3.23,3.81,3.17,8.51s-0.06,4.71-0.1,7.53c-0.04,2.82-2.27,6.56-2.27,6.56s7.6,3.86,8.66,5.76s3.2,5.69,5.4,4.78
		c2.2-0.91,3.23,3.81,5.4,4.78c2.17,0.97-0.12,9.41-0.15,11.29c0,0.33-0.04,0.51-0.09,0.61c0.19,0.13,0.54,0.47,1.15,1.29
		c2.15,2.85,2.08,8.5,7.52,9.51c5.45,1.01,6.58-1.8,5.5-2.75s-3.24-2.87,0.05-3.76c3.29-0.9,2.16,1.91,4.33,2.88
		c2.17,0.97-1.04-3.78,2.23-3.74c3.28,0.04,3.24,2.87,5.41,3.84c2.17,0.97,5.46,0.07,7.66-0.84c2.2-0.91,0.06-4.71,3.35-5.61
		c3.29-0.9,4.37,0.06,6.53,1.97c2.16,1.91-2.24,4.68-0.06,4.71s5.41,3.84,4.32,3.82c-1.09-0.01-3.28-0.04-1.12,1.87
		c2.16,1.91,1.03,4.72-0.1,7.53c-1.13,2.81-2.1,11.37-0.16,12.24c4.34,1.94,6.52,2.91,6.49,4.79c-0.02,1.88,3.25,1.92,4.32,3.82
		c1.07,1.9-2.24,4.68-1.18,6.57s1.07,1.9,3.24,2.87c2.17,0.97,7.65,0.1,9.82,1.07c2.17,0.97-1.15,4.69-0.08,6.59
		s5.44,1.95,6.49,4.79C414.19,574.57,415.27,574.55,416.17,574.47z"/>
	<radialGradient id="SVGID_5_" cx="412.2778" cy="575.3942" r="0.3027" gradientUnits="userSpaceOnUse">
		<stop  offset="0" style="stop-color:#0096D8;stop-opacity:0"/>
		<stop  offset="0.8734" style="stop-color:#0096D8;stop-opacity:0.8734"/>
		<stop  offset="1" style="stop-color:#0096D8"/>
	</radialGradient>
	<path class="st13" d="M412.17,574.98c0.1,0.27,0.16,0.55,0.21,0.83C412.34,575.53,412.27,575.25,412.17,574.98z"/>
	<radialGradient id="SVGID_6_" cx="415.4899" cy="574.5247" r="0.4854" gradientUnits="userSpaceOnUse">
		<stop  offset="0" style="stop-color:#0096D8;stop-opacity:0"/>
		<stop  offset="0.8734" style="stop-color:#0096D8;stop-opacity:0.8734"/>
		<stop  offset="1" style="stop-color:#0096D8"/>
	</radialGradient>
	<path class="st14" d="M416.17,574.47c-0.4,0.04-0.84,0.06-1.37,0.11C415.34,574.53,415.77,574.5,416.17,574.47z"/>
	<radialGradient id="SVGID_7_" cx="583.5632" cy="590.4666" r="0.0159" gradientUnits="userSpaceOnUse">
		<stop  offset="0" style="stop-color:#0096D8;stop-opacity:0"/>
		<stop  offset="0.8734" style="stop-color:#0096D8;stop-opacity:0.8734"/>
		<stop  offset="1" style="stop-color:#0096D8"/>
	</radialGradient>
	<path class="st15" d="M583.57,590.49c0-0.01-0.01-0.03-0.01-0.04C583.56,590.46,583.57,590.47,583.57,590.49z"/>
	<radialGradient id="SVGID_8_" cx="583.7028" cy="591.2829" r="0.0124" gradientUnits="userSpaceOnUse">
		<stop  offset="0" style="stop-color:#0096D8;stop-opacity:0"/>
		<stop  offset="0.8734" style="stop-color:#0096D8;stop-opacity:0.8734"/>
		<stop  offset="1" style="stop-color:#0096D8"/>
	</radialGradient>
	<path class="st16" d="M583.7,591.3c0-0.01,0-0.02,0-0.03C583.7,591.28,583.7,591.29,583.7,591.3z"/>
	<radialGradient id="SVGID_9_" cx="583.3276" cy="589.6522" r="0.0224" gradientUnits="userSpaceOnUse">
		<stop  offset="0" style="stop-color:#0096D8;stop-opacity:0"/>
		<stop  offset="0.8734" style="stop-color:#0096D8;stop-opacity:0.8734"/>
		<stop  offset="1" style="stop-color:#0096D8"/>
	</radialGradient>
	<path class="st17" d="M583.34,589.68c-0.01-0.02-0.01-0.04-0.02-0.06C583.32,589.64,583.33,589.66,583.34,589.68z"/>
	<radialGradient id="SVGID_10_" cx="541.8636" cy="539.4127" r="97.5324" gradientUnits="userSpaceOnUse">
		<stop  offset="0" style="stop-color:#0096D8;stop-opacity:0"/>
		<stop  offset="0.8734" style="stop-color:#0096D8;stop-opacity:0.8734"/>
		<stop  offset="1" style="stop-color:#0096D8"/>
	</radialGradient>
	<path class="st18" d="M419.84,573.19c3.3-1.84,4.37,0.06,4.33,2.88c-0.04,2.82,1.02,5.66,3.2,5.69c2.18,0.03,2.22-2.8,4.39-1.83
		c2.17,0.97,1.07,1.9,3.24,2.87c2.17,0.97,5.46,0.07,7.63,1.04c2.17,0.97,2.14,3.79,3.2,5.69s3.26,0.98,4.36,1
		c1.09,0.01,2.15,2.85,4.33,2.88c2.18,0.03,2.23-3.74,3.34-4.66c1.1-0.93,5.46,0.07,5.45,1.01s-1.13,2.81-0.05,3.76
		c1.08,0.96,4.56,0.06,7.65,0.1c3.28,0.04,3.31-2.78,4.42-3.71s4.34,1.94,5.44,1.95c1.09,0.01,3.31-2.78,5.5-2.75
		c2.18,0.03,6.54,1.03,8.7,2.94c2.16,1.91,7.62,1.98,8.73,1.05c1.1-0.93,7.73-6.49,11.03-8.33c3.3-1.84,6.57-0.86,8.76-1.77
		c2.2-0.91,4.39-1.83,7.67-1.78c3.28,0.04-1.03-4.72,3.35-5.61c4.38-0.89,9.84-0.82,9.83,0.13c-0.01,0.94,4.36,1,6.55,0.08
		c2.2-0.91,6.56-0.86,6.53,1.97c-0.04,2.82-1.13,2.81-0.05,3.76c1.08,0.96,1.14-3.75,3.31-2.78s-0.06,4.71,2.1,6.62
		c2.16,1.91,3.25,1.92,5.45,1.01c2.2-0.91,1.15-4.69,4.43-4.65c3.28,0.04,3.23,3.81,6.5,3.85c1.14,0.01,2.14,0.72,2.91,1.71
		c0.22-0.27,0.35-0.51,0.35-0.72c0.04-2.82-0.06-5.53,2.28-7.5c1.1-0.93,2-2.9-2.12-4.73c-4.34-1.94-4.32-3.82,0.06-4.71
		c2.38-0.48,1.09,0.01,3.26,0.98c2.17,0.97,3.22,4.75,3.19,6.63s4.37,0.06,4.38-0.89s0.05-3.76-1.02-5.66
		c-1.35-2.4,0.06-4.71,3.34-4.66c3.28,0.04,6.53,1.97,7.63,1.04s2.24-4.68,5.51-3.69c2.81,0.85,3.13,6.54,4.56,8.12
		c0.53,0.05,1.05,0.05,1.52-0.03c2.89-0.52,5.1-3.11,6.97-4.16c3.3-1.84,5.11-3.1,10.95-3.74c3.3-0.36,7.21,2.72,9.69,3.37
		c3.27,0.85,10.13-1.49,12-2c3.29-0.9-9.53-3.42-4-9c2.77-2.79,10.13-8.28,14-14s4.26-11.68,3.71-11.69
		c-1.09-0.01-10.82-7.67-12.98-9.58c-2.16-1.91-10.85-5.79-13.03-5.82s-0.05,3.76-2.24,4.68c-2.2,0.91,0.04-2.82-2.15-2.85
		c-2.18-0.03-2.2,0.91-4.37-0.06c-2.17-0.97-1.03-4.72,0.1-7.53s2.27-6.56,1.2-8.46c-1.07-1.9-2.15-2.85-4.3-5.7
		s-4.28-6.64-6.48-5.73c-2.2,0.91-6.59,2.74-6.58,1.8s-2.14-3.79-6.48-5.73c-2.17-0.97-5.46-0.07-5.47,0.87
		c-0.01,0.94-0.02,1.88-2.22,2.8c-2.2,0.91-3.29,0.9-4.42,3.71c-1.13,2.81-0.06,4.71-2.27,6.56c-2.21,1.85-2.17-0.97-2.21,1.85
		c-0.04,2.82-2.23,3.74-7.69,3.67c-5.46-0.07-4.43,4.65-3.36,6.55c1.07,1.9,0.96,10.37-0.15,11.29c-0.58,0.49-2.85,0.53-4.32,1.49
		c-1.33,0.88-1.82,2.69-3.39,3.11c-3.29,0.9-3.34,4.66-5.46-0.07c-2.12-4.73-6.44-8.56-8.63-8.58c-1.64-0.02-3.89-0.29-6.3-0.18
		c-0.8,0.03-1.6-1.57-2.43-0.87c-2.82,2.36-1.15,4.69-1.15,4.69s-4.33-2.88-5.4-4.78c-1.07-1.9-1.03-4.72-4.3-5.7
		c-3.72-1.12-1.77-2.17-0.59-4.61c0.9-1.87-0.15-4-2.37-4.66c-1.11-0.33-2.64-0.57-6.73-1.21c-6.54-1.03-6.55-0.08-6.53-1.97
		c0.02-1.88-2.12-4.73-4.28-6.64c-2.16-1.91-2.16-1.91-3.26-0.98c-1.1,0.93,2.16,1.91,1.04,3.78s-5.48,1.81-6.59,2.74
		c-1.1,0.93,2.11,5.68-1.18,6.57c-2.33,0.64-2.16-1.91-4.31-4.76c-2.15-2.85-6.48-5.73-7.6-3.86s-4.44,5.59-8.82,6.48
		c-4.38,0.89-1.04-3.78-2.59-5.22c-0.05-0.05-0.13-0.09-0.23-0.13c-1.91,1.12-3.96,1.98-4.8,3.38c-1.12,1.87-4.42,3.71-3.35,5.61
		c1.07,1.9-1.14,3.75-3.35,5.61s-3.26-0.98-5.46-0.07c-2.2,0.91-1.13,2.81-2.22,2.8c-1.09-0.01-4.34-1.94-4.37-0.06
		c-0.02,1.88,2.14,3.79-1.14,3.75c-3.28-0.04-3.26-0.98-4.39,1.83s-4.36-1-6.54-1.03c-2.18-0.03-1.08-0.96-3.29,0.9
		c-1.56,1.31-3.3,1.84-5.48,1.81c-2.18-0.03-1.08-0.96-3.24-2.87c-2.16-1.91-7.72,5.55-5.57,8.4c2.15,2.85,1.02,5.66-0.1,7.53
		s-5.46-0.07-5.5,2.75c-0.04,2.82-0.15,11.29-0.16,12.24s-0.01,0.94,3.24,2.87c3.25,1.92,2.09,7.56-1.2,8.46
		c-3.29,0.9-3.28-0.04-5.51,3.69s-3.31,2.78-7.67,1.78c-4.36-1-1.92,6.38-1.57,7.89C417.24,574.37,418.06,574.19,419.84,573.19z"/>
	<radialGradient id="SVGID_11_" cx="583.6419" cy="592.6224" r="0.0589" gradientUnits="userSpaceOnUse">
		<stop  offset="0" style="stop-color:#0096D8;stop-opacity:0"/>
		<stop  offset="0.8734" style="stop-color:#0096D8;stop-opacity:0.8734"/>
		<stop  offset="1" style="stop-color:#0096D8"/>
	</radialGradient>
	<path class="st19" d="M583.66,592.54c-0.01,0.05-0.02,0.11-0.03,0.16C583.64,592.65,583.65,592.6,583.66,592.54z"/>
	<radialGradient id="SVGID_12_" cx="583.7229" cy="592.017" r="0.0633" gradientUnits="userSpaceOnUse">
		<stop  offset="0" style="stop-color:#0096D8;stop-opacity:0"/>
		<stop  offset="0.8734" style="stop-color:#0096D8;stop-opacity:0.8734"/>
		<stop  offset="1" style="stop-color:#0096D8"/>
	</radialGradient>
	<path class="st20" d="M583.73,591.93c0,0.06-0.01,0.12-0.01,0.18C583.72,592.05,583.73,591.99,583.73,591.93z"/>
	<radialGradient id="SVGID_13_" cx="393.4722" cy="552.5504" r="0.0366" gradientUnits="userSpaceOnUse">
		<stop  offset="0" style="stop-color:#0096D8;stop-opacity:0"/>
		<stop  offset="0.8734" style="stop-color:#0096D8;stop-opacity:0.8734"/>
		<stop  offset="1" style="stop-color:#0096D8"/>
	</radialGradient>
	<path class="st21" d="M393.51,552.59c-0.02-0.03-0.05-0.05-0.07-0.08C393.46,552.54,393.48,552.56,393.51,552.59z"/>
	<radialGradient id="SVGID_14_" cx="412.5464" cy="574.9086" r="0.2686" gradientUnits="userSpaceOnUse">
		<stop  offset="0" style="stop-color:#0096D8;stop-opacity:0"/>
		<stop  offset="0.8734" style="stop-color:#0096D8;stop-opacity:0.8734"/>
		<stop  offset="1" style="stop-color:#0096D8"/>
	</radialGradient>
	<path class="st22" d="M412.17,574.98c0.26-0.05,0.51-0.1,0.75-0.14C412.69,574.88,412.44,574.93,412.17,574.98z"/>
	<radialGradient id="SVGID_15_" cx="390.8206" cy="550.7188" r="0.9327" gradientUnits="userSpaceOnUse">
		<stop  offset="0" style="stop-color:#0096D8;stop-opacity:0"/>
		<stop  offset="0.8734" style="stop-color:#0096D8;stop-opacity:0.8734"/>
		<stop  offset="1" style="stop-color:#0096D8"/>
	</radialGradient>
	<path class="st23" d="M391.9,551.47c-0.9-0.46-1.8-0.85-2.16-1.51C390.11,550.63,391,551.01,391.9,551.47z"/>
	<radialGradient id="SVGID_16_" cx="392.2819" cy="551.6779" r="0.0829" gradientUnits="userSpaceOnUse">
		<stop  offset="0" style="stop-color:#0096D8;stop-opacity:0"/>
		<stop  offset="0.8734" style="stop-color:#0096D8;stop-opacity:0.8734"/>
		<stop  offset="1" style="stop-color:#0096D8"/>
	</radialGradient>
	<path class="st24" d="M392.18,551.62c0.07,0.04,0.14,0.07,0.21,0.11C392.32,551.7,392.25,551.66,392.18,551.62z"/>
	<radialGradient id="SVGID_17_" cx="392.9288" cy="552.0837" r="0.0512" gradientUnits="userSpaceOnUse">
		<stop  offset="0" style="stop-color:#0096D8;stop-opacity:0"/>
		<stop  offset="0.8734" style="stop-color:#0096D8;stop-opacity:0.8734"/>
		<stop  offset="1" style="stop-color:#0096D8"/>
	</radialGradient>
	<path class="st25" d="M392.99,552.13c-0.04-0.03-0.08-0.06-0.12-0.08C392.91,552.07,392.95,552.1,392.99,552.13z"/>
	<radialGradient id="SVGID_18_" cx="414.5286" cy="574.6104" r="0.1425" gradientUnits="userSpaceOnUse">
		<stop  offset="0" style="stop-color:#0096D8;stop-opacity:0"/>
		<stop  offset="0.8734" style="stop-color:#0096D8;stop-opacity:0.8734"/>
		<stop  offset="1" style="stop-color:#0096D8"/>
	</radialGradient>
	<path class="st26" d="M414.33,574.63c0.14-0.02,0.27-0.03,0.4-0.04C414.6,574.6,414.47,574.62,414.33,574.63z"/>
	<radialGradient id="SVGID_19_" cx="413.3516" cy="574.7679" r="0.1675" gradientUnits="userSpaceOnUse">
		<stop  offset="0" style="stop-color:#0096D8;stop-opacity:0"/>
		<stop  offset="0.8734" style="stop-color:#0096D8;stop-opacity:0.8734"/>
		<stop  offset="1" style="stop-color:#0096D8"/>
	</radialGradient>
	<path class="st27" d="M413.12,574.81c0.16-0.03,0.32-0.05,0.47-0.08C413.44,574.75,413.28,574.78,413.12,574.81z"/>
	<radialGradient id="SVGID_20_" cx="413.9788" cy="574.6764" r="0.1463" gradientUnits="userSpaceOnUse">
		<stop  offset="0" style="stop-color:#0096D8;stop-opacity:0"/>
		<stop  offset="0.8734" style="stop-color:#0096D8;stop-opacity:0.8734"/>
		<stop  offset="1" style="stop-color:#0096D8"/>
	</radialGradient>
	<path class="st28" d="M413.77,574.7c0.14-0.02,0.28-0.04,0.41-0.05C414.05,574.66,413.92,574.68,413.77,574.7z"/>
	<radialGradient id="SVGID_21_" cx="485.0416" cy="498.7832" r="3.099854e-03" gradientUnits="userSpaceOnUse">
		<stop  offset="0" style="stop-color:#0096D8;stop-opacity:0"/>
		<stop  offset="0.8734" style="stop-color:#0096D8;stop-opacity:0.8734"/>
		<stop  offset="1" style="stop-color:#0096D8"/>
	</radialGradient>
	<path class="st29" d="M485.05,498.78C485.04,498.78,485.04,498.78,485.05,498.78C485.04,498.78,485.04,498.78,485.05,498.78z"/>
	<radialGradient id="SVGID_22_" cx="483.5887" cy="499.8983" r="0.084" gradientUnits="userSpaceOnUse">
		<stop  offset="0" style="stop-color:#0096D8;stop-opacity:0"/>
		<stop  offset="0.8734" style="stop-color:#0096D8;stop-opacity:0.8734"/>
		<stop  offset="1" style="stop-color:#0096D8"/>
	</radialGradient>
	<path class="st30" d="M483.67,499.81c-0.06,0.06-0.12,0.11-0.17,0.17C483.56,499.92,483.62,499.87,483.67,499.81z"/>
	<radialGradient id="SVGID_23_" cx="484.2244" cy="499.3446" r="0.0856" gradientUnits="userSpaceOnUse">
		<stop  offset="0" style="stop-color:#0096D8;stop-opacity:0"/>
		<stop  offset="0.8734" style="stop-color:#0096D8;stop-opacity:0.8734"/>
		<stop  offset="1" style="stop-color:#0096D8"/>
	</radialGradient>
	<path class="st31" d="M484.13,499.42c0.06-0.05,0.12-0.1,0.19-0.15C484.25,499.32,484.19,499.37,484.13,499.42z"/>
	<radialGradient id="SVGID_24_" cx="486.0489" cy="498.2015" r="0.1379" gradientUnits="userSpaceOnUse">
		<stop  offset="0" style="stop-color:#0096D8;stop-opacity:0"/>
		<stop  offset="0.8734" style="stop-color:#0096D8;stop-opacity:0.8734"/>
		<stop  offset="1" style="stop-color:#0096D8"/>
	</radialGradient>
	<path class="st32" d="M486.22,498.11c-0.11,0.06-0.23,0.13-0.34,0.19C485.99,498.23,486.1,498.17,486.22,498.11z"/>
	<radialGradient id="SVGID_25_" cx="580.59" cy="455.4832" r="101.5472" gradientUnits="userSpaceOnUse">
		<stop  offset="0" style="stop-color:#0096D8;stop-opacity:0"/>
		<stop  offset="0.8734" style="stop-color:#0096D8;stop-opacity:0.8734"/>
		<stop  offset="1" style="stop-color:#0096D8"/>
	</radialGradient>
	<path class="st33" d="M695.13,464.2c-4.42-4.12-8.91-9.06-9.42-9.97c-1.07-1.9,5.45,0.85,5.48-1.81c0.05-3.76,0.05-3.76,1.18-6.57
		c0.61-1.51,0.75-5.19-0.79-6.84c-1.31-1.41-0.88-0.79-2.38-1.68c-1.63-0.96-6-0.31-8.05-0.57c-2.04-0.26-1.76-1.43-2.84-2.39
		c-2.16-1.91-4.37-0.06-6.57,0.86c-2.2,0.91-3.28-0.04-6.58,1.8c-3.3,1.84-1.15,4.69-3.36,6.55c-1.2,1.01-3.99,0.77-6.82,1.05
		c-2.39,0.24-2.63,1.14-4.13,0.69c-3.26-0.98-2.15-2.85-5.41-3.84s-8.77,2.71-8.77,2.71s-1.07-1.9,0.05-3.76s3.34-4.66,2.27-6.56
		c-1.07-1.9-3.25-1.92-3.22-4.75c0.03-2.12,1.46-1.69,0.09-3.03c-0.46-0.45-4.12-1.97-4.39-2.67c-0.79-2.13-1.72-4.55-3.61-4.31
		c-0.63,0.08-1.27,2.13-1.82,2.36c-2.2,0.91-3.3,1.84-4.38,0.89c-1.08-0.96-4.33-2.88-6.54-1.03c-2.21,1.85-2.24,4.68-4.4,2.77
		c-2.16-1.91-2.17-0.97-5.44-1.95s1.13-2.81,2.23-3.74s-7.61-2.92-9.79-2.95c-2.18-0.03-2.16-1.91-2.14-3.79
		c0.02-1.88-3.22-4.75-3.22-4.75s-6.55-0.08-7.63-1.04c-1.08-0.96,4.4-2.77,5.51-3.69s0.04-2.82,0.05-3.76s-1.06-2.84-2.14-3.79
		c-1.08-0.96,0.05-3.76-2.14-3.79c-2.18-0.03-7.66,0.84-8.73-1.05c-1.07-1.9-7.58-4.8-7.58-4.8s-1.12,1.87-3.3,1.84
		c-2.18-0.03-2.22,2.8-3.31,2.78c-1.09-0.01-4.36-1-7.65-0.1c-3.29,0.9,1.03,4.72-0.06,4.71c-1.09-0.01-3.24-2.87-4.31-4.76
		c-1.07-1.9-2.17-0.97-4.32-3.82s-13.05-4.87-15.23-4.9c-2.18-0.03-5.48,1.81-6.6,3.68s1.04,3.78-2.23,3.74
		c-3.28-0.04-3.24-2.87-3.22-4.75c0.02-1.88-6.55-0.08-10.92-0.14s-5.52,4.64-7.74,7.43c-2.22,2.8-2.21,1.85-6.58,1.8
		c-4.37-0.06-1.04-3.78-2.12-4.73c-1.08-0.96-4.42,3.71-5.53,5.58c-1.12,1.87-0.13,10.35-3.41,10.31c-0.54-0.01-1.65,0.34-3.12,0.92
		c1.28,2.38,0.49,6.24-0.26,7.51c-1.12,1.87-4.38,0.89-3.32,3.72c0.38,1.02,2.13,2.31,2.77,3.56c1.13,2.22,1.1,4.36,0.4,4.95
		c-1.1,0.93-3.26-0.98-5.48,1.81c-2.22,2.8-1.14,3.75-2.24,4.68c-1.1,0.93-6.58,1.8-6.6,3.68c-0.02,1.88-0.04,2.82,1.02,5.66
		c1.06,2.84-1.3,15.99-4.61,18.77c-3.31,2.78-4.42,3.71-3.35,5.61c1.07,1.9,1.07,1.9,3.24,2.87c2.17,0.97,6.55,0.08,6.5,3.85
		c-0.05,3.76-1.15,4.69,2.12,4.73c3.28,0.04,3.23,3.81,5.38,6.66c2.15,2.85,3.24,2.87,5.39,5.72c2.15,2.85,1.06,2.84,4.32,3.82
		c3.26,0.98,6.53,1.97,4.32,3.82c-0.81,0.68-1.78,1.24-2.72,1.76c0.3-0.17,0.61-0.34,0.91-0.51c0.1,0.04,0.18,0.09,0.23,0.13
		c1.54,1.45-1.79,6.11,2.59,5.22c4.38-0.89,7.71-4.61,8.82-6.48s5.45,1.01,7.6,3.86c2.15,2.85,1.98,5.4,4.31,4.76
		c3.29-0.9,0.07-5.65,1.18-6.57c1.1-0.93,5.47-0.87,6.59-2.74s-2.15-2.85-1.04-3.78c1.1-0.93,1.1-0.93,3.26,0.98
		c2.16,1.91,4.31,4.76,4.28,6.64c-0.02,1.88-0.01,0.94,6.53,1.97c4.1,0.64,5.63,0.88,6.73,1.21c2.22,0.66,3.27,2.79,2.37,4.66
		c-1.18,2.45-3.13,3.49,0.59,4.61c3.26,0.98,3.23,3.81,4.3,5.7c1.07,1.9,5.4,4.78,5.4,4.78s-1.66-2.33,1.15-4.69
		c0.83-0.7,1.63,0.9,2.43,0.87c2.41-0.1,4.66,0.16,6.3,0.18c2.18,0.03,6.5,3.85,8.63,8.58c2.12,4.73,2.17,0.97,5.46,0.07
		c1.56-0.43,2.05-2.24,3.39-3.11c1.47-0.97,3.74-1.01,4.32-1.49c1.1-0.93,1.21-9.4,0.15-11.29c-1.07-1.9-2.1-6.62,3.36-6.55
		c5.46,0.07,7.66-0.84,7.69-3.67c0.04-2.82,0,0,2.21-1.85c2.21-1.85,1.14-3.75,2.27-6.56c1.13-2.81,2.22-2.8,4.42-3.71
		c2.2-0.91,2.21-1.85,2.22-2.8c0.01-0.94,3.3-1.84,5.47-0.87c4.34,1.94,6.49,4.79,6.48,5.73s4.38-0.89,6.58-1.8
		c2.2-0.91,4.33,2.88,6.48,5.73s3.23,3.81,4.3,5.7c1.07,1.9-0.07,5.65-1.2,8.46s-2.27,6.56-0.1,7.53c2.17,0.97,2.18,0.03,4.37,0.06
		c2.18,0.03-0.05,3.76,2.15,2.85c2.2-0.91,0.06-4.71,2.24-4.68s10.87,3.91,13.03,5.82c2.16,1.91,11.89,9.57,12.98,9.58
		c0,0,4.13-4.81,3.08-8.59c-1.04-3.78-5.34-9.48-7.5-11.39c-2.16-1.91-12.79-11.53-15.11-14.31c-3.05-3.67-5.06-8.58-6.41-11.38
		c-3.19-6.63-2.65-6.85-4.78-10.64c-0.98-1.75-5.4-3.91-7-4c-1.87-0.1-1.05,2.04-4,2c-4.5-0.06-5.74-7.41-6-9
		c-0.73-4.45,5.38-7.19,3-10c-1.64-1.93-3,0-6,3c-2,2-4.2,1.24-4.5,3.45c-0.5,3.78,0.5,9.55-0.5,11.55s-5,3-9.24-0.85
		c-2.88-2.62-1.67-9.42-4.16-9.45c-2.44-0.03-1.22,2.8-1.28,7.5c-0.05,3.76-2.94,8.24-3.4,9.37c-1.13,2.81-7.48,1.81-9.67,1.78
		c-0.88-0.01-2.88-1.02-4.33-2.88c-0.88-1.13-1.01-3.14-2.14-3.79c-1.64-0.95-4.3,0.55-5.47,0.87c-3.29,0.9-15.29-0.2-13.09-1.11
		c1.36-0.57,6.29,0.54,10.92,0.14c2.85-0.25,5.18-2.53,7.67-1.78c1.43,0.43,2.56,2.47,4.32,3.82c2.26,1.74,5.13,2.82,6.52,2.91
		c2.46,0.15,5.25-5.15,6.37-7.49c1.12-2.34-0.66-5.41-0.22-7.87c0.44-2.47,0.1-3.33,1.74-3.31c3.28,0.04,4.01-0.69,5.13,1.02
		c1.12,1.71,1.19,4.71,2.29,6.42c2.03,3.14,4.8,6.73,5.34,4.94c0.15-0.51,1.53-0.42,1.77-1.58c0.24-1.16-0.67-3.57-1.08-5.05
		c-0.83-2.97-1.38-6.25-1.6-8.5c-0.2-2.05,0.82-3.21,1.3-3.97c0.48-0.76,0.42-1.12,2.07-1.57c1.58-0.43,2.94,1.18,5.44,0.95
		c2.64-0.24,1.85-3.34,5.67-1.78c3.13,1.28,5.13,5.28,1.85,10.29c-0.82,1.25-2.15,3.56-1.25,4.75c1.32,1.74,6.6,3.2,7.89,3.9
		c5.42,2.89,4.54-0.41,7.52,4.51c1.11,1.83,2.68,4.07,4.28,6.73c1.01,1.69,0.79,1.3,1.83,3.1c0.61,1.06,2.01,4.38,4,7
		c2.23,2.94,6.07,5.18,7,6c5.4,4.78,12.49,7.82,15.24,9.59c3.76,2.41,10.63,7.22,11.76,4.41s7.78-3.2,10-6c0.75-0.95,2.03-0.78,1-3
		c-0.49-1.05-4-3.63-4-5c0-4.28,6.25-9.75,7-11c0.58-0.97,4-13,5.4-13.65C704.06,470.82,699.92,468.66,695.13,464.2z"/>
	<radialGradient id="SVGID_26_" cx="608.0247" cy="386.1084" r="73.3928" gradientUnits="userSpaceOnUse">
		<stop  offset="0" style="stop-color:#0096D8;stop-opacity:0"/>
		<stop  offset="0.8734" style="stop-color:#0096D8;stop-opacity:0.8734"/>
		<stop  offset="1" style="stop-color:#0096D8"/>
	</radialGradient>
	<path class="st34" d="M530.46,380.69c0.06,0.03,0.11,0.07,0.17,0.1c0.32-0.06,0.63-0.09,0.92-0.09c2.18,0.03,13.08,2.05,15.23,4.9
		s3.25,1.92,4.32,3.82c1.07,1.9,3.22,4.75,4.31,4.76c1.09,0.01-3.23-3.81,0.06-4.71c3.29-0.9,6.55,0.08,7.65,0.1
		c1.09,0.01,1.13-2.81,3.31-2.78c2.18,0.03,3.3-1.84,3.3-1.84s6.52,2.91,7.58,4.8c1.07,1.9,6.54,1.03,8.73,1.05
		c2.18,0.03,1.06,2.84,2.14,3.79c1.08,0.96,2.15,2.85,2.14,3.79s1.06,2.84-0.05,3.76s-6.59,2.74-5.51,3.69
		c1.08,0.96,7.63,1.04,7.63,1.04s3.24,2.87,3.22,4.75c-0.02,1.88-0.05,3.76,2.14,3.79c2.18,0.03,10.9,2.02,9.79,2.95
		s-5.5,2.75-2.23,3.74s3.28,0.04,5.44,1.95c2.16,1.91,2.2-0.91,4.4-2.77c2.21-1.85,5.46,0.07,6.54,1.03
		c1.08,0.96,2.18,0.03,4.38-0.89c0.55-0.23,1.19-2.28,1.82-2.36c1.9-0.24,2.82,2.18,3.61,4.31c0.26,0.71,3.93,2.23,4.39,2.67
		c1.37,1.34-0.06,0.91-0.09,3.03c-0.04,2.82,2.15,2.85,3.22,4.75c1.07,1.9-1.15,4.69-2.27,6.56s-0.05,3.76-0.05,3.76
		s5.51-3.69,8.77-2.71s2.15,2.85,5.41,3.84c1.49,0.45,1.73-0.45,4.13-0.69c2.83-0.28,5.62-0.05,6.82-1.05
		c2.21-1.85,0.06-4.71,3.36-6.55c3.3-1.84,4.38-0.89,6.58-1.8c2.2-0.91,4.4-2.77,6.57-0.86c1.08,0.96,0.79,2.13,2.84,2.39
		c0.74,0.09,1.79,0.07,2.9,0.05c0.29-0.45,0.57-0.91,0.81-1.41c0.32-0.68,1.21-1.55,0.04-2.82c-1.18-1.27-4.07-1.95-4.33-2.88
		c-0.46-1.66,3.22-0.73,5.58,0.44c1.73,0.86,0.74,2.74,1.79,3.44c0.84,0.56,3.77,0.03,4.59,0.04c1.5,0.02,0.21-1.8-1.64-3.42
		c-0.62-0.54-2.28-0.24-2.6-0.94c-0.42-0.89,3.28-1.04,3.88-2.15c0.6-1.1-1.91-3.15-1.69-3.88c1.14-3.75,0.01-0.94-2.09-7.56
		c-1.05-3.31,0.6-4.23,1.43-5.39c0.83-1.17,0.26-3.79-0.22-4c-4.34-1.94-3.8,0.45-8.69-3.88c-2.16-1.91-2.14-3.79-1.01-6.6
		c0,0,3.31-2.78,2.26-5.62c-0.49-1.31,1.08-2.16,0.05-3.76c-1.03-1.6-4.66-3.94-5.41-3.84c-1.5,0.22-3.32,3.25-4.42,3.71
		c-2.2,0.91-4.38,0.89-7.62-1.98c-3.24-2.87-4.36-1-8.74-0.11c-1.42,0.29-0.99,4.56-1.29,5.06c-0.63,1.05-2-1.64-4.2-2.31
		c-3.26-0.98-2.16-1.91-3.22-4.75c-1.2-3.24,2.24-4.68,0.13-10.35c-1.18-3.16-2.34-1.43-4.49,1.22c-1.71,2.11-4.45,4.2-5.4,3.36
		c-2.16-1.91-3.25-1.92-7.62-1.98s-6.54-1.03-7.61-2.92c-2.44-4.32-3.26-0.98-5.39-5.72c-1.67-3.73,0.06-4.71-3.19-6.63
		s-5.5,2.75-8.79,3.65c-3.29,0.9-3.25-1.92-6.5-3.85s-2.21,1.85-5.48,1.81s-2.17-0.97-2.14-3.79c0.07-5.07-5.45-1.01-8.69-3.88
		c-4.11-3.64-2.1-6.62-5.39-5.72c-3.29,0.9-3.31,2.78-7.72,5.55c-0.72,0.45-3.18-0.07-5.33-0.27c-1.58-0.15-2.29-1.52-2.28-2.65
		c0.02-1.88,2.35-13.15,0.18-14.12c-1.63-0.73-2.69,2.02-4.48,2.09c-0.6,0.02-2.34-2.88-3.15-3.13c-3.26-0.98-2.14-3.79-3.19-6.63
		c-1.06-2.84-2.17-0.97-4.38,0.89c-2.21,1.85-1.09-0.01-5.47,0.87s-7.75,8.37-4.49,9.36s2.12,4.73,2.09,7.56
		c-0.04,2.82-3.3,1.84-7.67,1.78c-4.37-0.06-2.23,3.74-2.27,6.56c-0.04,2.82,1.03,4.72-0.08,6.59s0,0-2.22,2.8
		c-1.42,1.79-0.27,3.97-0.98,5.99c-0.95,2.69-2.44,5.13-2.45,6.2C522.83,378.71,526.11,378.75,530.46,380.69z"/>
	<radialGradient id="SVGID_27_" cx="716.3945" cy="427.056" r="45.8361" gradientUnits="userSpaceOnUse">
		<stop  offset="0" style="stop-color:#0096D8;stop-opacity:0"/>
		<stop  offset="0.8734" style="stop-color:#0096D8;stop-opacity:0.8734"/>
		<stop  offset="1" style="stop-color:#0096D8"/>
	</radialGradient>
	<path class="st35" d="M744.64,407.94c-3.23-3.81-11.74-9.02-15-10s-8.19-4.44-10.36-5.41c-2.17-0.97-3.26-0.98-6.54-1.03
		s-5.45-1.01-7.62-1.98c-2.17-0.97-5.7,1.24-7.63-1.04c-3.23-3.81-6.5-3.85-8.66-5.76c0,0,0.07-5.65-2.11-5.68
		c-2.18-0.03-2.22,2.8-5.48,1.81c-3.26-0.98-7.65-0.1-5.51,3.69c0.08,0.14,0.13,0.28,0.18,0.43c0.31-0.22,0.62-0.37,0.91-0.41
		c0.75-0.11,4.38,2.24,5.41,3.84c1.03,1.6-0.54,2.46-0.05,3.76c1.06,2.84-2.26,5.62-2.26,5.62c-1.13,2.81-1.15,4.69,1.01,6.6
		c4.89,4.33,4.34,1.94,8.69,3.88c0.49,0.22,1.06,2.84,0.22,4c-0.83,1.17-2.48,2.09-1.43,5.39c2.1,6.62,3.23,3.81,2.09,7.56
		c-0.22,0.73,2.29,2.77,1.69,3.88c-0.6,1.1-4.3,1.26-3.88,2.15c0.33,0.7,1.99,0.4,2.6,0.94c1.85,1.63,3.14,3.44,1.64,3.42
		c-0.82-0.01-3.75,0.52-4.59-0.04c-1.04-0.7-0.05-2.58-1.79-3.44c-2.36-1.17-6.04-2.1-5.58-0.44c0.26,0.93,3.15,1.61,4.33,2.88
		c1.18,1.27,0.29,2.15-0.04,2.82c-0.24,0.5-0.51,0.96-0.81,1.41l0,0c1.96-0.04,4.11-0.09,5.15,0.53c1.5,0.89,1.07,0.27,2.38,1.68
		c1.54,1.65,1.4,5.32,0.79,6.84c-1.13,2.81-1.13,2.81-1.18,6.57c-0.03,2.66-6.55-0.08-5.48,1.81c0.51,0.91,5,5.85,9.42,9.97
		c4.78,4.46,8.48,6.12,7.9,7.09c1.57,0.25,1.62-1.83,2.6-2.35c1.03-0.54,3.97,2.48,5,3c2.07,1.03,4.78,5.92,7,5
		c4.39-1.83,16.64-23.89,19.93-24.79c3.29-0.9,18.87-23.29,20-26.1S747.87,411.75,744.64,407.94z"/>
	<radialGradient id="SVGID_28_" cx="616.2734" cy="345.0369" r="59.7207" gradientUnits="userSpaceOnUse">
		<stop  offset="0" style="stop-color:#0096D8;stop-opacity:0"/>
		<stop  offset="0.8734" style="stop-color:#0096D8;stop-opacity:0.8734"/>
		<stop  offset="1" style="stop-color:#0096D8"/>
	</radialGradient>
	<path class="st36" d="M545.58,308.4c2.17,0.97,4.36,1,5.44,1.95c1.08,0.96,3.23,3.81,2.12,4.73s-0.02,1.88,1.06,2.84
		c1.08,0.96-0.05,3.76-2.26,5.62c-0.46,0.39-1.7,1.87-2.49,3.25c0.5-0.05,0.93,0.33,1.34,1.44c1.06,2.84-0.07,5.65,3.19,6.63
		c0.82,0.25,2.55,3.15,3.15,3.13c1.79-0.07,2.85-2.82,4.48-2.09c2.17,0.97-0.16,12.24-0.18,14.12c-0.01,1.13,0.7,2.5,2.28,2.65
		c2.15,0.21,4.61,0.72,5.33,0.27c4.4-2.77,4.43-4.65,7.72-5.55c3.29-0.9,1.28,2.08,5.39,5.72c3.24,2.87,8.75-1.19,8.69,3.88
		c-0.04,2.82-1.14,3.75,2.14,3.79s2.23-3.74,5.48-1.81s3.22,4.75,6.5,3.85c3.29-0.9,5.53-5.58,8.79-3.65s1.52,2.9,3.19,6.63
		c2.12,4.73,2.95,1.39,5.39,5.72c1.07,1.9,3.24,2.87,7.61,2.92s5.46,0.07,7.62,1.98c0.96,0.85,3.69-1.24,5.4-3.36
		c2.15-2.65,3.31-4.38,4.49-1.22c2.11,5.68-1.34,7.12-0.13,10.35c1.06,2.84-0.05,3.76,3.22,4.75c2.21,0.67,3.57,3.36,4.2,2.31
		c0.3-0.5-0.12-4.77,1.29-5.06c4.38-0.89,5.5-2.75,8.74,0.11c3.24,2.87,5.42,2.89,7.62,1.98c0.88-0.37,2.23-2.4,3.51-3.3
		c0,0,0,0,0,0c-0.05-0.15-0.1-0.29-0.18-0.43c-2.14-3.79,2.24-4.68,5.51-3.69c3.26,0.98,3.3-1.84,5.48-1.81
		c0.63,0.01,1.07,0.49,1.38,1.17c0.01-0.81-0.07-1.54-0.28-2.1c-1.06-2.84-6.44-8.56-9.71-9.54s-4.37-0.06-8.74-0.11
		c-2.54-0.03-8.58-2.17-11.1-2.55c-3.32-0.5-3.06-0.45-6.32-1.44c-0.98-0.3-0.97-1.73-2.52-1.74c-1.31-0.01-1.84,0.74-5.21,1.02
		c-1.81,0.15-3.45,0.21-4.28,0.56c-0.57,0.24-1.19,0.6,1.08,0.96c2.1,0.33,4.86,0.61,5.45,1.01c1.22,0.84-1.64-0.02-3.28-0.04
		c-2.29-0.03-5.04,0.46-7.14-0.66c-1.08-0.57-2.28-1.33-3.74-2.3c-4.33-2.88-4.2-13.23-3.06-16.98c1.14-3.75,0.12-9.41-0.92-13.19
		s-1.06-2.84-2.14-3.79c-1.08-0.96-4.37-0.06-7.65-0.1s-4.36-1-4.31-4.76c0.04-2.98,1.21-9.4-0.96-10.37
		c-1.15-0.52-2.76-0.77-5.37-0.77c-2.3,0-5.61,0.19-6.64,0.62c-1.39,0.58-5.5,2.75-8.76,1.77s-3.24-2.87-5.41-3.84
		s-2.21,1.85-5.5,2.75c-1.73,0.47-3.94,0.42-4.93-0.01c-0.89-0.38-1.67-1.07-2.69-1.98c-1.14-1.01-3.17-4.02-5.16-6.04
		c-1.78-1.8-2.43-2.59-3.45-3.49c-2.16-1.91-2.21,1.85-4.39,1.83c-2.18-0.03-4.37-0.06-6.54-1.03c-2.17-0.97-3.29,0.9-6.59,2.74
		C544.52,306.51,543.41,307.43,545.58,308.4z"/>
	<radialGradient id="SVGID_29_" cx="676.3539" cy="382.7183" r="0.0294" gradientUnits="userSpaceOnUse">
		<stop  offset="0" style="stop-color:#0096D8;stop-opacity:0"/>
		<stop  offset="0.8734" style="stop-color:#0096D8;stop-opacity:0.8734"/>
		<stop  offset="1" style="stop-color:#0096D8"/>
	</radialGradient>
	<path class="st37" d="M676.32,382.74c0.03-0.01,0.05-0.02,0.08-0.03C676.37,382.71,676.34,382.72,676.32,382.74z"/>
	<radialGradient id="SVGID_30_" cx="656.196" cy="230.0932" r="136.008" gradientUnits="userSpaceOnUse">
		<stop  offset="0" style="stop-color:#0096D8;stop-opacity:0"/>
		<stop  offset="0.8734" style="stop-color:#0096D8;stop-opacity:0.8734"/>
		<stop  offset="1" style="stop-color:#0096D8"/>
	</radialGradient>
	<path class="st38" d="M690.97,299.91c0,0-0.14-1.03-1.63,0.32c-0.92,0.84,0.49,3.43-3.89,4.31c-2.12,0.43-4.34-1.94-6.52-2.91
		c-2.17-0.97-3.26-0.98-5.47,0.87c-2.21,1.85-2.23,3.74-2.28,7.5c-0.05,3.76,1.06,2.84,3.24,2.87c2.18,0.03,2.18,0.03,4.34,1.94
		c2.16,1.91,1.06,2.84-1.14,3.75c-4.39,1.83-5.47,0.87-5.52,4.64c-0.05,3.76,1.06,2.84-1.16,5.63c-0.87,1.1-2.21,1.85-1.14,3.75
		c2.44,4.32,3.19,6.63,3.17,8.51c-0.02,1.88,1,7.54-1.19,7.52c-2.18-0.03-3.26-0.98-6.55-0.08c-3.29,0.9-6.57,0.86-6.6,3.68
		c-0.04,2.82-0.06,4.71-0.08,6.59c-0.02,1.88-1.13,2.81-3.3,1.84c-2.17-0.97-4.32-3.82-6.52-2.91c-2.2,0.91-6.54-1.03-7.67,1.78
		c-1.13,2.81-6.56,0.86-7.63-1.04c-1.07-1.9-2-14.15-1.95-17.91c0.05-3.76-0.93-12.25-2.02-13.21c-1.08-0.96-2.15-2.85-5.42-2.89
		c-3.28-0.04-7.67,1.78-7.63-1.04c0.04-2.82,1.23-10.34,0.16-12.24c-1.07-1.9-5.44-1.95-8.71-1.99c-3.28-0.04-5.46-0.07-8.75,0.83
		c-3.29,0.9-4.4,2.77-6.57,0.86c-2.16-1.91-4.33-2.88-6.52-2.91c-1.38-0.02-2.76,0.15-4.15,1.2c-0.81,0.61-1.64,2.15-2.45,2.48
		c-2.2,0.91-3.83-1.65-6.49-4.79c-3.23-3.81-4.3-5.7-6.47-6.67c-2.17-0.97-4.37-0.06-5.47,0.87c-1.1,0.93-2.18-0.03-2.17-0.97
		s2.21-1.85,0.04-2.82c-2.17-0.97-3.26-0.98-2.14-3.79s2.24-4.68,4.44-5.59c2.2-0.91,2.22-2.8,0.06-4.71
		c-2.16-1.91-2.18-0.03-4.33-2.88s-1.02-5.66,2.29-8.44s7.72-5.55,6.66-8.39s0.06-4.71-2.12-4.73c-2.18-0.03-5.47,0.87-4.33-2.88
		c1.14-3.75,3.41-10.31,1.25-12.22c-2.16-1.91-3.23-3.81-3.19-6.63s1.15-4.69-1.03-4.72c-2.18-0.03-4.36-1-5.44-1.95
		c-1.08-0.96-1.07-1.9-1.06-2.84c0.01-0.94-2.17-0.97-4.36-1s-5.44-1.95-5.4-4.78s0.02-1.88-4.34-1.94
		c-4.37-0.06-7.63-1.04-4.33-2.88c3.3-1.84,3.28,0.04,3.35-5.61c0.07-5.65,0.1-7.53-2.09-7.56c-2.18-0.03-3.28-0.04-5.45-1.01
		c-2.17-0.97-4.27-7.59-2.08-8.5c2.2-0.91,4.4-2.77,3.32-3.72s-3.25-1.92-4.33-2.88c-1.08-0.96-2.12-4.73,0.06-4.71
		c2.18,0.03,4.37,0.06,3.3-1.84c-1.07-1.9-2.14-3.79-1.02-5.66c1.12-1.87,2.23-3.74,4.4-2.77c2.17,0.97,4.36,1,5.44,1.95
		c1.08,0.96,2.09,7.56,4.27,7.59c2.18,0.03,2.18,0.03,2.21-1.85s1.18-6.57,1.19-7.52c0.01-0.94-1.04-3.78-2.11-5.68
		c-1.07-1.9-2.14-3.79,1.16-5.63s4.39-1.83,3.34-4.66c-1.06-2.84-2.12-4.73,0.06-4.71c2.18,0.03,4.3,5.7,5.4,4.78
		s1.13-2.81,1.15-4.69c0.02-1.88,0.02-1.88,2.22-2.8c2.2-0.91,6.59-2.74,5.52-4.64c-1.07-1.9-1.1,0.93-1.04-3.78
		c0.06-4.71,0.07-5.65,1.19-7.52s0.04-2.82,0.07-5.65c0.04-2.82,2.21-1.85,3.31-2.78c1.1-0.93,1.13-2.81,1.15-4.69
		c0.02-1.88,2.21-1.85,2.23-3.74c0.02-1.88-2.16-1.91-3.24-2.87c-1.08-0.96,1.16-5.63,4.44-5.59c3.28,0.04,1.18-6.57,3.36-6.55
		c2.18,0.03,8.75-0.83,10.92,0.14c2.17,0.97,3.25,1.92,4.34,1.94c0.66,0.01,3.88,2.11,5.07,4.39c0.78,1.49,0.5,4.92,1.35,6.05
		c2.15,2.85,5.45,1.01,7.62,1.98c0.88,0.39,2.28,2.04,3.8,2.94c2.22,1.31,4.67,2.08,5.94,3.78c2.15,2.85-0.05,3.76,2.14,3.79
		c2.18,0.03,3.31-2.78,4.38-0.89c1.07,1.9,1.06,2.84,3.25,1.92c2.2-0.91,3.34-4.66,4.4-2.77c1.07,1.9,1.06,2.84,4.34,1.94
		c3.29-0.9,7.66-0.84,10.92,0.14s4.39-1.83,4.4-2.77c0.01-0.94-1.04-3.78-1.02-5.66c0.02-1.88-3.23-3.81,0.06-4.71
		c3.29-0.9,5.42,2.89,6.53,1.97c1.1-0.93,4.39-1.83,3.32-3.72c-1.07-1.9-1.04-3.78-3.22-4.75c-2.17-0.97,2.22-2.8,4.42-3.71
		c2.2-0.91,3.28,0.04,5.45,1.01c2.17,0.97,7.66-0.84,9.85-1.76c2.2-0.91,4.38-0.89,4.4-2.77c0.02-1.88-2.12-4.73,0.08-6.59
		c2.21-1.85,4.4-2.77,5.48-1.81c1.08,0.96,1.06,2.84,4.33,2.88c3.28,0.04,5.48-1.81,6.59-2.74c1.1-0.93,4.34,1.94,4.33,2.88
		c-0.01,0.94,1.07,1.9,2.16,1.91c1.09,0.01-1.14,3.75-0.05,3.76s3.29-0.9,5.46,0.07c2.17,0.97,4.39-1.83,5.45,1.01
		c1.06,2.84,2.12,4.73,4.33,2.88c2.21-1.85,3.31-2.78,3.28,0.04c-0.04,2.82-3.34,4.66-0.07,5.65s3.28,0.04,6.53,1.97
		s3.26,0.98,4.32,3.82c1.06,2.84,2.14,3.79,4.3,5.7s2.15,2.85-0.07,5.65c-2.22,2.8-5.53,5.58-1.19,7.52s6.53,1.97,7.61,2.92
		c1.08,0.96,0.97,9.43,4.24,10.41s3.28,0.04,7.63,1.04c4.36,1,4.33,2.88,7.63,1.04c3.3-1.84,4.43-4.65,6.64-6.5
		c2.21-1.85,3.31-2.78,6.58-1.8c3.72,1.12,4.33,2.88,5.44,1.95c1.1-0.93,1.13-2.81,1.14-3.75c0.01-0.94,1.12-1.87,2.2-0.91
		s-0.04,2.82-0.06,4.71c-0.02,1.88-0.04,2.82-0.05,3.76c-0.01,0.42,1.05,3.31,2.25,4.54c1.47,1.52,2.04,1.49,2.02,3.05
		c-0.04,2.82-2.26,5.62-0.08,6.59c2.17,0.97,4.37,0.06,4.34,1.94s-0.02,1.88,1.04,3.78c1.07,1.9,1.01,6.6-2.27,6.56
		c-3.28-0.04-3.26-0.98-5.48,1.81s-2.24,4.68-2.24,4.68c2.15,2.85,3.26,0.98,2.15,2.85s-4.4,2.77-2.26,5.62
		c2.15,2.85,4.34,1.94,6.53,1.97c2.18,0.03,5.45,1.01,3.23,3.81s1.03,4.72-1.18,6.57c-0.78,0.66-4.39,1.83-6.59,2.74
		c-2.2,0.91-3.35,5.61-2.26,5.62c1.09,0.01,4.34,1.94,2.14,3.79c-2.21,1.85-0.04,2.82-2.24,4.68c-2.21,1.85-2.21,1.85-5.48,1.81
		c-3.28-0.04-2.21,1.85-4.4,2.77c-2.2,0.91-6.59,2.74-6.59,2.74c-1.06-2.84,2.27-6.56-3.18-7.57c-5.45-1.01-8.76,1.41-8.82,6.48
		c-0.04,2.82-0.08,6.59,1,7.54c1.08,0.96,3.24,2.87,3.19,6.63c-0.05,3.76-0.1,7.53,0.96,10.37c1.06,2.84-1.23,10.34-2.34,12.21
		s-4.38,0.89-5.5,2.75s-2.23,3.74-0.06,4.71c2.17,0.97,3.28,0.04,5.44,1.95s0.98,8.48-0.12,9.41c-1.1,0.93-2.17-0.97-5.48,1.81
		c-3.31,2.78-1.15,4.69-3.35,5.61c-2.2,0.91-4.38,0.89-4.42,3.71c-0.04,2.82,1.04,3.78-1.16,5.63c-2.21,1.85-11.18,19.63-13.4,22.42
		c-2.22,2.8-4.42,3.71-5.59,10.28c-1.18,6.57-3.37,7.49-2.35,13.15c1.02,5.66-0.17,13.18-4.59,16.89c-1.36,1.14,0.18,2.5-0.17,3.8
		c-0.39,1.41-2.05,1.82-2.89,2.84c-0.88,1.07-0.97,2.72-2.52,2.7c-4.37-0.06-5.41-3.84-13.05-4.87s-6.49-4.79-14.14-4.89
		c-7.65-0.1-5.45-1.01-10.92-0.14c-5.47,0.87-7.62-1.98-6.5-3.85s0.06-4.71,1.15-4.69c1.09,0.01,4.36,1,8.74,0.11
		s2.23-3.74,3.36-6.55c1.13-2.81-1.51-6.45-2.08-8.5c-1.04-3.78,0.1-7.53,1.21-9.4s-1.02-5.66,3.35-5.61s3.28,0.04,5.48-1.81
		s-2.11-5.68-4.28-6.64c-2.17-0.97-4.36-1-5.45-1.01c-1.09-0.01,1.13-2.81,1.16-5.63c0.04-2.82,2.22-2.8,4.38-0.89
		c2.16,1.91,1.07,1.9,5.44,1.95s4.37,0.06,5.48-1.81S690.97,299.91,690.97,299.91z"/>
	<radialGradient id="SVGID_31_" cx="581.6129" cy="309.8056" r="0" gradientUnits="userSpaceOnUse">
		<stop  offset="0" style="stop-color:#0096D8;stop-opacity:0"/>
		<stop  offset="0.8734" style="stop-color:#0096D8;stop-opacity:0.8734"/>
		<stop  offset="1" style="stop-color:#0096D8"/>
	</radialGradient>
	<path class="st39" d="M581.61,309.81"/>
	<radialGradient id="SVGID_32_" cx="617.4416" cy="592.9827" r="37.6759" gradientUnits="userSpaceOnUse">
		<stop  offset="0" style="stop-color:#0096D8;stop-opacity:0"/>
		<stop  offset="0.8734" style="stop-color:#0096D8;stop-opacity:0.8734"/>
		<stop  offset="1" style="stop-color:#0096D8"/>
	</radialGradient>
	<path class="st40" d="M584.71,579.08c-2.34,1.97-2.24,4.68-2.28,7.5c0,0.21-0.13,0.46-0.35,0.72c1.44,1.84,2.09,4.66,1.36,5.88
		c-1.12,1.87-4.39,1.83-4.42,3.71c-0.02,1.88,1.08,0.96-0.04,2.82s-4.39,1.83-5.51,3.69s2.14,3.79,4.32,3.82
		c2.18,0.03,3.29-0.9,3.25,1.92c-0.04,2.82,4.36,1,6.55,0.08c2.2-0.91,3.25,1.92,6.56-0.86c0.78-0.66-2.14-3.79-1.03-4.72
		s2.21-1.85,3.3-1.84c1.09,0.01-1.07-1.9,0.05-3.76s1.07,1.9,3.29-0.9s-3.2-5.69,0.07-5.65c3.28,0.04,6.5,3.85,9.77,4.83
		c3.26,0.98,9.79,2.95,11.99,2.04c2.2-0.91,0.98,8.48,2.05,10.38c1.07,1.9-1.13,2.81-0.06,4.71c1.07,1.9-3.31,2.78-3.32,3.72
		c-0.01,0.94,2.17,0.97,2.15,2.85s3.23,3.81,4.34,1.94c1.12-1.87,0.06-4.71,2.24-4.68c2.18,0.03,5.44,1.95,6.52,2.91
		c1.08,0.96,10.9,2.02,13.09,1.11c2.2-0.91,1.21-9.4,5.59-10.28c0.57-0.11,0.98-0.13,1.28-0.08c1.85-0.94,6.12-5.13,6.15-7.01
		c0.02-1.88-1.91-4.99-3-5c-1.09-0.01-0.86-2.21-3-6s-4.19-12.79-6-14c-4.1-2.73-2.41-0.96-5-3c-2.26-1.78-6.19-3.88-6.69-4.77
		c-1.07-1.9-2.12-4.73-6.49-4.79c-2.44-0.03-10.59,3.74-11.69,4.67c-1.1,0.93-3.29,0.9-5.47,0.87c-2.18-0.03-2.09-7.56-5.35-8.54
		c-3.26-0.98-4.4,2.77-5.51,3.69s-4.36-1-7.63-1.04c-3.28-0.04-4.69,2.27-3.34,4.66c1.07,1.9,1.03,4.72,1.02,5.66
		s-4.4,2.77-4.38,0.89s-1.02-5.66-3.19-6.63c-2.17-0.97-0.89-1.46-3.26-0.98c-4.38,0.89-4.4,2.77-0.06,4.71
		C586.71,576.18,585.81,578.15,584.71,579.08z"/>
	<radialGradient id="SVGID_33_" cx="670.2358" cy="596.1802" r="1.7647" gradientUnits="userSpaceOnUse">
		<stop  offset="0" style="stop-color:#0096D8;stop-opacity:0"/>
		<stop  offset="0.8734" style="stop-color:#0096D8;stop-opacity:0.8734"/>
		<stop  offset="1" style="stop-color:#0096D8"/>
	</radialGradient>
	<path class="st41" d="M671.87,596.2c-0.01,1.04-0.76,1.87-1.66,1.86c-0.9-0.01-1.63-0.86-1.61-1.9c0.01-1.04,0.76-1.87,1.66-1.86
		S671.89,595.16,671.87,596.2z"/>
	<radialGradient id="SVGID_34_" cx="700.2948" cy="376.5655" r="9.4086" gradientUnits="userSpaceOnUse">
		<stop  offset="0" style="stop-color:#0096D8;stop-opacity:0"/>
		<stop  offset="0.8734" style="stop-color:#0096D8;stop-opacity:0.8734"/>
		<stop  offset="1" style="stop-color:#0096D8"/>
	</radialGradient>
	<path class="st42" d="M691.46,366.81c0,0-1.18,8.93,1.99,10.76c3.16,1.83,4.2,3.63,6.3,6.34c2.09,2.71,7.4,2.78,8.48,1.9
		s2.23-8.02-0.91-11.64c-3.14-3.62-4.2-3.63-7.38-4.57C696.75,368.67,695.71,366.87,691.46,366.81z"/>
	<radialGradient id="SVGID_35_" cx="761.0812" cy="402.6342" r="22.9039" gradientUnits="userSpaceOnUse">
		<stop  offset="0" style="stop-color:#0096D8;stop-opacity:0"/>
		<stop  offset="0.8734" style="stop-color:#0096D8;stop-opacity:0.8734"/>
		<stop  offset="1" style="stop-color:#0096D8"/>
	</radialGradient>
	<path class="st43" d="M788.58,407.29c0,0-17.89-13.65-20-15.47c-2.1-1.82-6.32-4.55-11.62-5.52s-12.74-1.06-18.07-0.23
		c-5.32,0.83-6.42,3.5-4.31,4.42c2.11,0.92,7.38,4.57,10.55,6.4c3.17,1.83,8.4,8.16,9.45,9.07s2.11,0.92,5.29,1.86
		c3.18,0.94,9.43,10.86,11.54,11.78s7.47-2.59,10.68-4.34C785.31,413.51,788.58,407.29,788.58,407.29z"/>
	<radialGradient id="SVGID_36_" cx="821.6067" cy="378.4998" r="8.0186" gradientUnits="userSpaceOnUse">
		<stop  offset="0" style="stop-color:#0096D8;stop-opacity:0"/>
		<stop  offset="0.8734" style="stop-color:#0096D8;stop-opacity:0.8734"/>
		<stop  offset="1" style="stop-color:#0096D8"/>
	</radialGradient>
	<path class="st44" d="M812.09,381.51c0,0,3.22-2.64,5.36-3.51c2.14-0.87,2.37-1.85,4.29-2.63c2.14-0.87,1.07-0.88,2.15-1.76
		c1.7-1.39,3.42-0.76,5.31,0.07c2.11,0.92,3.18,0.94,1.03,2.7c-2.15,1.76-3.2,0.85-4.29,2.63s-0.02,1.79-2.15,1.76
		c-2.13-0.03-3.21,1.75-6.41,2.6c-3.2,0.85-2.14,0.87-4.26,0.84C811,384.18,812.09,381.51,812.09,381.51z"/>
	<radialGradient id="SVGID_37_" cx="833.331" cy="392.7427" r="17.5424" gradientUnits="userSpaceOnUse">
		<stop  offset="0" style="stop-color:#0096D8;stop-opacity:0"/>
		<stop  offset="0.8734" style="stop-color:#0096D8;stop-opacity:0.8734"/>
		<stop  offset="1" style="stop-color:#0096D8"/>
	</radialGradient>
	<path class="st45" d="M811.94,393.14c0,0,0.05-3.58,2.17-3.55c2.13,0.03,2.11,0.92,4.25,0.05c2.14-0.87,2.16-2.66,3.23-3.54
		c1.07-0.88,1.09-1.78,2.16-2.66c1.07-0.88,2.15-1.76,3.2-0.85c1.05,0.91-2.16,2.66-1.11,3.56s1.05,0.91,2.13,0.03
		c1.07-0.88,1.07-0.88,2.14-0.87c1.06,0.01,1.06,0.01,2.14-0.87c1.07-0.88,1.09-1.78,2.14-0.87c1.05,0.91-0.26,0.89,2.11,0.92
		c2.13,0.03,4.24,0.95,4.25,0.05c0.01-0.89,0.02-1.79,1.09-1.78c1.06,0.01,4.26-0.84,4.25,0.05c-0.01,0.89-1.1,2.67-0.05,3.58
		c0.41,0.35,1.15-0.32,1.83-0.13c1.07,0.3,2,1.42,1.34,1.96c-1.07,0.88-1.09,1.78-1.09,1.78s2.13,0.03,3.19,0.04
		c1.06,0.01-0.01,0.89-0.02,1.79c-0.01,0.89,1.05,0.91,2.11,0.92c1.06,0.01,3.16,1.83,2.1,1.82c-1.06-0.01-1.07,0.51-1.09,1.78
		c-0.02,1.79-2.13-0.03-4.26,0.84c-2.14,0.87-2.14,0.87-3.21,1.75s-0.03,2.68-2.16,2.66c-2.13-0.03-5.31-0.07-7.44-0.1
		c-2.13-0.03-1.09,1.78-2.15,1.76c-1.06-0.01-2.13-0.03-3.18-0.94c-1.05-0.91-1.05-0.7-1.03-2.7c0.01-0.89,0.01-0.89-1.05-0.91
		c-1.06-0.01-0.88-0.91-4.24-0.95c-2.13-0.03-3.19-0.04-6.38-0.08c-2.38-0.03-1.09,1.78-2.16,2.66s-2.11-0.92-4.23-1.84
		s-1.06-0.01-1.05-0.91c0.01-0.89,2.14-0.87,1.09-1.78s-2.1-1.82-2.1-1.82S810.88,393.12,811.94,393.14z"/>
	<radialGradient id="SVGID_38_" cx="877.4402" cy="390.3868" r="10.8743" gradientUnits="userSpaceOnUse">
		<stop  offset="0" style="stop-color:#0096D8;stop-opacity:0"/>
		<stop  offset="0.8734" style="stop-color:#0096D8;stop-opacity:0.8734"/>
		<stop  offset="1" style="stop-color:#0096D8"/>
	</radialGradient>
	<path class="st46" d="M865.17,392.66c-1.05-0.91-1.05-0.91-1.04-1.8c0.01-0.89,0.01-0.89,0.01-0.89s2.17-3.55,3.25-4.43
		c1.07-0.88,4.27-1.73,5.35-2.62c0.76-0.62,3.19,0.04,5.29,1.86c1.05,0.91,2.42,1.19,3.16,1.83c1.05,0.91,2.13,0.03,3.2-0.85
		c1.07-0.88,1.07-0.88,3.2-0.85c3.19,0.04,3.18,0.94,3.16,1.83c-0.01,0.89-1.09,1.78-4.29,2.63c-3.2,0.85-4.27,1.73-6.41,2.6
		c-2.14,0.87-4.25-0.05-6.39,0.81c-2.14,0.87-1.09,1.78-1.1,2.67c-0.01,0.89-1.1,2.67-3.22,2.64c-2.13-0.03-2.1-1.82-2.09-2.71
		C867.28,393.58,866.22,393.57,865.17,392.66z"/>
	<radialGradient id="SVGID_39_" cx="840.1591" cy="421.5459" r="3.6326" gradientUnits="userSpaceOnUse">
		<stop  offset="0" style="stop-color:#0096D8;stop-opacity:0"/>
		<stop  offset="0.8734" style="stop-color:#0096D8;stop-opacity:0.8734"/>
		<stop  offset="1" style="stop-color:#0096D8"/>
	</radialGradient>
	<path class="st47" d="M842.6,417.54c0,0-1.06-0.01-3.21,1.75c-0.79,0.65-1.71,1.04-2.15,1.76c-1.09,1.78,1.01,4.49,2.07,4.5
		c1.06,0.01,2.14-0.87,3.22-2.64S843.67,417.55,842.6,417.54z"/>
	<radialGradient id="SVGID_40_" cx="829.8084" cy="436.0165" r="22.9601" gradientUnits="userSpaceOnUse">
		<stop  offset="0" style="stop-color:#0096D8;stop-opacity:0"/>
		<stop  offset="0.8734" style="stop-color:#0096D8;stop-opacity:0.8734"/>
		<stop  offset="1" style="stop-color:#0096D8"/>
	</radialGradient>
	<path class="st48" d="M803.99,440.78c0,0-1.02-3.59,2.16-2.66c3.18,0.94,2.14-0.87,2.17-3.55c0.02-1.95,3.22-2.64,3.84-2.11
		c0.68,0.59,1.67,1.2,2.54,2.19c3.14,3.62,3.12,5.41,7.38,4.57c4.26-0.84,5.34-1.72,8.54-2.57c3.2-0.85,2.13,0.03,5.34-1.72
		c3.21-1.75,2.17-3.55,4.3-3.52c2.13,0.03,4.29-2.63,4.3-3.52c0.01-0.89-1.03-2.7,0.05-3.58c0,0,1.07-0.88,3.21-1.75
		s1.09-1.78,3.21-1.75c2.13,0.03,2.11,0.92,3.19,0.04s2.15-1.76,3.2-0.85s-0.03,2.68-1.1,2.67c-1.06-0.01-2.13-0.03-2.14,0.87
		c-0.01,0.89-1.11,3.56-1.12,4.46c-0.03,2,1.02,3.59-0.06,4.47c-1.07,0.88-4.24-0.95-5.3-0.96c-1.06-0.01-3.19-0.04-3.2,0.85
		c-0.01,0.89,1.02,3.59-0.05,3.58c-0.53-0.01-1.33,0.43-2.13-0.03s-1.57-1.81-2.1-1.82c-1.06-0.01-0.16,3.91-2.18,4.45
		c-3.2,0.85-6.38-0.08-8.51,0.79c-0.88,0.36-1.57,2.43-3.14,3.58c-0.85,0.62-2.7,0.33-3.29,0.81c-1.07,0.88-0.03,2.68-0.03,2.68
		c-0.01,0.89-0.03,2.68-1.1,2.67c-0.75-0.01-2.13,0.64-2.66-0.03c-0.11-0.14-0.68-1.36-1.34-1.74c-0.96-0.55-2.09-0.31-2.09-0.63
		c0.01-0.53,1.08-1.02,0.81-1.25c-1.05-0.91-1.05-0.91-2.13-0.03s-4.27,1.73-7.47,2.59c-2.26,0.6-1.12,4.46-2.18,4.45
		c-1.06-0.01-1.06-0.01-1.04-1.8c0.02-1.79-2.09-2.71-2.08-3.61c0.01-0.89,1.07-0.88,2.15-1.76s-2.11-0.92-1.03-2.7
		C803.99,440.78,803.99,440.78,803.99,440.78z"/>
	<radialGradient id="SVGID_41_" cx="855.1279" cy="454.7805" r="20.4757" gradientUnits="userSpaceOnUse">
		<stop  offset="0" style="stop-color:#0096D8;stop-opacity:0"/>
		<stop  offset="0.8734" style="stop-color:#0096D8;stop-opacity:0.8734"/>
		<stop  offset="1" style="stop-color:#0096D8"/>
	</radialGradient>
	<path class="st49" d="M834.27,460c0,0,0.01-0.89,2.14-0.87c1.06,0.01,2.14-0.87,2.15-1.76c0.01-0.89,1.09-1.78,3.22-2.64
		s1.1-2.67,2.16-2.66s1.86-1.2,3.21-1.75c2.14-0.87,0.15-3.18,1.11-3.56c2.14-0.87,2.13,0.03,3.2-0.85s1.77-0.47,3.2-0.85
		c3.2-0.85,3.19,0.04,4.24,0.95c0.74,0.64,1.06,0.01,2.14-0.87s1.1-2.67,1.1-2.67c-1.06-0.01-1.07,0.88-2.14,0.87
		c-1.06-0.01-4.26,0.84-3.19-0.04c1.07-0.88,3.21-1.75,3.23-3.54c0.02-1.79-2.09-2.71,1.1-2.67c3.19,0.04,3.19,0.04,4.26-0.84
		c1.07-0.88,5.34-1.72,5.32-0.83c-0.01,0.89-0.02,1.79-1.1,2.67c-1.07,0.88-2.14,0.87-2.15,1.76c-0.01,0.89-4.26,0.84-4.27,1.73
		c-0.01,0.89-0.02,1.79,1.04,1.8c1.06,0.01,1.07-0.88,2.14-0.87s3.16,1.83,4.24,0.95c1.07-0.88,0.02-1.79,1.1-2.67
		c1.07-0.88,2.14-0.87,3.2-0.85c1.06,0.01,1.06,0.01,1.05,0.91c-0.01,0.89-1.1,2.67-2.16,2.66c-1.06-0.01-2.14,0.87-0.01,0.89
		c2.13,0.03,3.16,1.83,2.08,3.61c-0.31,0.51-1.78,2.37-2.17,3.55c-0.47,1.43,0.09,1.3-1.09,1.78c-0.48,0.19-1.78-1.61-2.98-2.57
		c-1.2-0.96-2.29-1.07-2.29-1.07l-1.07,0.88c0,0,2.13,0.03,3.18,0.94c0.36,0.31,0.68,1.93-0.03,2.68c-0.56,0.59-2.17,0.29-2.14,0.87
		c0.03,0.41,1.35,0.62,2.11,0.92c0.81,0.32,1.06,0.01,1.05,0.91c-0.01,0.89-2.14,0.87-2.15,1.76c-0.01,0.45,0.51,1.35,1.04,1.8
		c0.53,0.45,1.06,0.46,1.05,0.91c-0.01,0.89-0.01,0.89-1.09,1.78c-0.72,0.59-2.16,0.71-3.19-0.04c-0.5-0.37-1.4-2.41-2.09-2.71
		c-2.11-0.92-2.13-0.03-2.13-0.03s-0.02,1.79-1.1,2.67s-3.23,3.54-3.25,4.43c-0.01,0.44-0.73,1.93-2.17,3.55
		c-0.46,0.52-1.63,1.39-2.15,1.76c-1.2,0.85-1.77,1.77-2.15,1.76c-1.06-0.01,0.02-1.79,0.03-2.68c0.01-0.7-0.62-2.75,0.05-3.58
		c0.53-0.66,2.25-0.96,3.21-1.75c1.07-0.88,2.14-0.87,3.22-2.64s1.11-3.56,1.12-4.46c0.01-0.89-2.13-0.03-3.2,0.85
		s-0.03,2.68-3.22,2.64c-3.19-0.04-5.31-0.07-6.36-0.98c-1.05-0.91-1.05-0.91-3.19-0.04c-2.14,0.87-2.13-0.03-4.25-0.05
		c-0.76-0.01-0.39-0.75-1.05-0.91c-0.56-0.13-2.56,0.15-3.19-0.04C833.56,460.68,834.27,460,834.27,460z"/>
	<radialGradient id="SVGID_42_" cx="880.1778" cy="462.7719" r="2.3" gradientUnits="userSpaceOnUse">
		<stop  offset="0" style="stop-color:#0096D8;stop-opacity:0"/>
		<stop  offset="0.8734" style="stop-color:#0096D8;stop-opacity:0.8734"/>
		<stop  offset="1" style="stop-color:#0096D8"/>
	</radialGradient>
	<path class="st50" d="M882.43,461c-1.06-0.01-1.07,0.88-3.2,0.85c-2.13-0.03-2.16,2.66-1.1,2.67c1.06,0.01,1.06,0.01,2.13,0.03
		c1.06,0.01,2.14-0.87,2.15-1.76C882.42,461.89,883.5,461.01,882.43,461z"/>
	<radialGradient id="SVGID_43_" cx="829.8124" cy="474.6412" r="4.2537" gradientUnits="userSpaceOnUse">
		<stop  offset="0" style="stop-color:#0096D8;stop-opacity:0"/>
		<stop  offset="0.8734" style="stop-color:#0096D8;stop-opacity:0.8734"/>
		<stop  offset="1" style="stop-color:#0096D8"/>
	</radialGradient>
	<path class="st51" d="M825.67,475.91c0,0,2.14-0.87,3.21-1.75c0.54-0.44-0.11-1.9,0.03-2.68c0.14-0.78,2.14-0.87,3.2-0.85
		c2.13,0.03,2.09,2.71,2.08,3.61c-0.01,0.89,0.59,2.17-1.11,3.56c-1.07,0.88-1.07,0.88-3.2,0.85c-2.13-0.03-1.8-0.92-2.96-1.08
		c-0.95-0.13-0.79-0.35-1.27-0.76C824.92,476.16,825.67,475.91,825.67,475.91z"/>
	<radialGradient id="SVGID_44_" cx="851.6747" cy="480.0024" r="3.1312" gradientUnits="userSpaceOnUse">
		<stop  offset="0" style="stop-color:#0096D8;stop-opacity:0"/>
		<stop  offset="0.8734" style="stop-color:#0096D8;stop-opacity:0.8734"/>
		<stop  offset="1" style="stop-color:#0096D8"/>
	</radialGradient>
	<path class="st52" d="M851.15,478.03c-1.06-0.01-1.47,1.26-2.25,1.76c-0.89,0.57-1.55,1.29-0.99,1.78
		c1.05,0.91,2.13,0.03,3.19,0.04c1.06,0.01,2.13,0.03,3.19,0.04c2.38,0.03,1.09-1.78,0.03-2.68
		C853.28,478.06,852.22,478.04,851.15,478.03z"/>
	<radialGradient id="SVGID_45_" cx="850.4874" cy="486.0636" r="2.6809" gradientUnits="userSpaceOnUse">
		<stop  offset="0" style="stop-color:#0096D8;stop-opacity:0"/>
		<stop  offset="0.8734" style="stop-color:#0096D8;stop-opacity:0.8734"/>
		<stop  offset="1" style="stop-color:#0096D8"/>
	</radialGradient>
	<path class="st53" d="M851.08,483.4c-1.06-0.01-2.13-0.03-2.14,0.87c-0.01,0.89-0.81,1.29-1.09,1.78
		c-0.32,0.56,0.64,0.49,0.73,1.09c0.05,0.31,0.07,1.6,0.3,1.61c1.06,0.01,0.01-0.89,1.07-0.88c1.06,0.01,3.2-0.85,3.21-1.75
		c0.01-0.89,0.01-0.89-1.04-1.8C851.39,483.66,852.15,483.41,851.08,483.4z"/>
	<radialGradient id="SVGID_46_" cx="854.7924" cy="485.8063" r="2.4078" gradientUnits="userSpaceOnUse">
		<stop  offset="0" style="stop-color:#0096D8;stop-opacity:0"/>
		<stop  offset="0.8734" style="stop-color:#0096D8;stop-opacity:0.8734"/>
		<stop  offset="1" style="stop-color:#0096D8"/>
	</radialGradient>
	<path class="st54" d="M852.14,484.3c1.05,0.91,1.05,0.91,1.04,1.8c0,0.21-0.13,0.41-0.31,0.6c0.41,0.29,0.64,0.3,1.37,0.31
		c1.06,0.01,1.05,0.91,2.11,0.92c1.06,0.01,1.07-0.88,1.09-1.78c0.01-0.89,0.01-0.89,0.02-1.79
		C857.46,483.48,854.27,483.44,852.14,484.3z"/>
	<radialGradient id="SVGID_47_" cx="725.959" cy="539.8012" r="3.9304" gradientUnits="userSpaceOnUse">
		<stop  offset="0" style="stop-color:#0096D8;stop-opacity:0"/>
		<stop  offset="0.8734" style="stop-color:#0096D8;stop-opacity:0.8734"/>
		<stop  offset="1" style="stop-color:#0096D8"/>
	</radialGradient>
	<path class="st55" d="M721.96,543.03c0,0,0.09-7.16,5.41-7.09s1.02,3.59-0.05,3.58c-1.06-0.01,1.05,0.91-1.09,1.78
		C724.09,542.17,725.12,544.86,721.96,543.03z"/>
	<radialGradient id="SVGID_48_" cx="728.7879" cy="522.7011" r="3.691" gradientUnits="userSpaceOnUse">
		<stop  offset="0" style="stop-color:#0096D8;stop-opacity:0"/>
		<stop  offset="0.8734" style="stop-color:#0096D8;stop-opacity:0.8734"/>
		<stop  offset="1" style="stop-color:#0096D8"/>
	</radialGradient>
	<path class="st56" d="M726.52,518.94c-2.38-0.03-1.09,1.78-0.05,3.58c1.04,1.8-1.06-0.01,1.04,1.8c2.1,1.82-1.1,2.67,2.1,1.82
		s3.22-2.64,2.17-3.55C730.73,521.67,729.7,518.98,726.52,518.94z"/>
	<radialGradient id="SVGID_49_" cx="753.3717" cy="510.5957" r="3.033" gradientUnits="userSpaceOnUse">
		<stop  offset="0" style="stop-color:#0096D8;stop-opacity:0"/>
		<stop  offset="0.8734" style="stop-color:#0096D8;stop-opacity:0.8734"/>
		<stop  offset="1" style="stop-color:#0096D8"/>
	</radialGradient>
	<path class="st57" d="M752.04,512.99c0,0-4.23-1.84-1.03-2.7c3.2-0.85,3.2-0.85,3.21-1.75c0.01-0.89,4.25,0.05,2.1,1.82
		C754.17,512.12,755.23,513.03,752.04,512.99z"/>
	<radialGradient id="SVGID_50_" cx="757.7711" cy="515.814" r="2.6144" gradientUnits="userSpaceOnUse">
		<stop  offset="0" style="stop-color:#0096D8;stop-opacity:0"/>
		<stop  offset="0.8734" style="stop-color:#0096D8;stop-opacity:0.8734"/>
		<stop  offset="1" style="stop-color:#0096D8"/>
	</radialGradient>
	<path class="st58" d="M757.34,513.95c0,0,2.15-1.76,2.13,0.03c-0.02,1.79,2.07,4.5-0.06,4.47c-2.13-0.03-4.23-1.84-4.23-1.84
		S755.21,513.92,757.34,513.95z"/>
	<radialGradient id="SVGID_51_" cx="786.0593" cy="534.4194" r="5.0704" gradientUnits="userSpaceOnUse">
		<stop  offset="0" style="stop-color:#0096D8;stop-opacity:0"/>
		<stop  offset="0.8734" style="stop-color:#0096D8;stop-opacity:0.8734"/>
		<stop  offset="1" style="stop-color:#0096D8"/>
	</radialGradient>
	<path class="st59" d="M783.51,540.22c0,0,3.22-2.64,5.38-5.3s1.14-6.25,1.14-6.25s-2.13-0.03-3.19-0.04s-1.06-0.01-1.06-0.01
		s1.04,1.8-0.02,1.79s0.18-0.89-3.18-0.94c-2.13-0.03,0.99,5.38,0.98,6.28C783.56,536.64,781.41,538.4,783.51,540.22z"/>
	<radialGradient id="SVGID_52_" cx="867.7313" cy="544.8862" r="2.6203" gradientUnits="userSpaceOnUse">
		<stop  offset="0" style="stop-color:#0096D8;stop-opacity:0"/>
		<stop  offset="0.8734" style="stop-color:#0096D8;stop-opacity:0.8734"/>
		<stop  offset="1" style="stop-color:#0096D8"/>
	</radialGradient>
	<path class="st60" d="M864.94,544.46c0.01-0.89,1.19-1.37,2.15-1.76c2.14-0.87,4.24,0.95,3.16,1.83s-1.07,0.88-2.15,1.76
		s-3.21,1.75-3.19-0.04C864.94,544.46,864.93,545.36,864.94,544.46z"/>
	<radialGradient id="SVGID_53_" cx="881.41" cy="546.4727" r="4.9976" gradientUnits="userSpaceOnUse">
		<stop  offset="0" style="stop-color:#0096D8;stop-opacity:0"/>
		<stop  offset="0.8734" style="stop-color:#0096D8;stop-opacity:0.8734"/>
		<stop  offset="1" style="stop-color:#0096D8"/>
	</radialGradient>
	<path class="st61" d="M880.89,543.77c1.09-1.78,2.15-1.76,4.27-1.73c2.13,0.03,2.1,1.82,1.03,2.7c-1.7,1.39-2.15,1.76-2.16,2.66
		c-0.01,0.89-1.09,1.78-2.16,2.66c-1.07,0.88-1.07,0.88-3.2,0.85c-1.06-0.01-1.05-0.91-2.1-1.82c-0.74-0.64-1.03-2.7,0.03-2.68
		C877.67,546.42,879.81,545.55,880.89,543.77z"/>
	<radialGradient id="SVGID_54_" cx="885.3479" cy="551.1914" r="4.3714" gradientUnits="userSpaceOnUse">
		<stop  offset="0" style="stop-color:#0096D8;stop-opacity:0"/>
		<stop  offset="0.8734" style="stop-color:#0096D8;stop-opacity:0.8734"/>
		<stop  offset="1" style="stop-color:#0096D8"/>
	</radialGradient>
	<path class="st62" d="M887.2,549.22c-1.06-0.01,0,0-1.06-0.01c-1.06-0.01-1.06-0.01-1.05-0.91c0-0.35-0.49-0.57-1.08-0.71
		c-0.15,0.83-1.14,1.64-2.13,2.46c-0.67,0.55-0.92,0.75-1.52,0.82c-0.05,0.69-0.04,1.44,0,1.98c0.11,1.3,0.4,1.65,0.4,1.65
		s0,0,1.06,0.01c1.06,0.01,1.11-3.56,3.22-2.64c1.09,0.47,1.6,2.07,1.99,2.65c0.37,0.54,0.64,0.07,1.16,0.08
		c0.58,0.01,0.12-1.08,0.54-2.19c0.35-0.92,1.64-1.85,1.64-2.25C890.39,549.26,888.26,549.24,887.2,549.22z"/>
	<radialGradient id="SVGID_55_" cx="823.6001" cy="619.7596" r="11.093" gradientUnits="userSpaceOnUse">
		<stop  offset="0" style="stop-color:#0096D8;stop-opacity:0"/>
		<stop  offset="0.8734" style="stop-color:#0096D8;stop-opacity:0.8734"/>
		<stop  offset="1" style="stop-color:#0096D8"/>
	</radialGradient>
	<path class="st63" d="M811.28,622.02c0,0,4.22,2.74,5.26,4.54s2.1,1.82,3.17,1.83c1.06,0.01-1.02-3.59-2.06-5.39
		c-0.66-1.14-1.59-4.09,1.09-1.78c1.05,0.91,3.16,1.83,4.22,2.74c1.05,0.91,5.29,1.86,6.35,1.87c2.13,0.03-0.01,0.89,2.1,1.82
		s1.04,1.8,3.16,1.83c1.26,0.02,1.72-0.61,1.03-1.51c-0.47-0.61-2.05-1.36-2.04-2.08c0.02-1.79-1.01-4.49-3.13-4.51
		c-1.06-0.01-2.11-0.92-3.17-1.83c-1.05-0.91,0.02-1.79-1.03-2.7c-2.1-1.82-3.15-2.72-5.27-3.65s-3.17-1.83-4.22-2.74
		c-1.05-0.91-2.13-0.03-3.19-0.04c-1.06-0.01,2.1,1.82,4.2,3.63c2.1,1.82-0.01,0.89-2.14,0.87s-1.12,4.46-2.18,4.45
		C812.38,619.35,811.32,619.33,811.28,622.02z"/>
	<radialGradient id="SVGID_56_" cx="824.1213" cy="635.1584" r="2.6151" gradientUnits="userSpaceOnUse">
		<stop  offset="0" style="stop-color:#0096D8;stop-opacity:0"/>
		<stop  offset="0.8734" style="stop-color:#0096D8;stop-opacity:0.8734"/>
		<stop  offset="1" style="stop-color:#0096D8"/>
	</radialGradient>
	<path class="st64" d="M822.83,632.9c1.06,0.01,2.23,0.52,3.18,0.94c1.06,0.46,1.05,1.02,1.04,1.8c-0.01,0.78-0.02,1.79-1.09,1.78
		c-2.13-0.03-2.1-1.82-4.22-2.74C820.41,634.09,821.77,632.89,822.83,632.9z"/>
	<radialGradient id="SVGID_57_" cx="828.1784" cy="607.9113" r="2.4038" gradientUnits="userSpaceOnUse">
		<stop  offset="0" style="stop-color:#0096D8;stop-opacity:0"/>
		<stop  offset="0.8734" style="stop-color:#0096D8;stop-opacity:0.8734"/>
		<stop  offset="1" style="stop-color:#0096D8"/>
	</radialGradient>
	<path class="st65" d="M825.29,606.99c0.03-2,5.31,0.07,5.31,0.07s1.05,0.91-0.02,1.79c-1.07,0.88-1.07,0.88-3.2,0.85
		C825.88,609.68,825.28,607.88,825.29,606.99z"/>
	<radialGradient id="SVGID_58_" cx="837.2712" cy="617.6981" r="3.411" gradientUnits="userSpaceOnUse">
		<stop  offset="0" style="stop-color:#0096D8;stop-opacity:0"/>
		<stop  offset="0.8734" style="stop-color:#0096D8;stop-opacity:0.8734"/>
		<stop  offset="1" style="stop-color:#0096D8"/>
	</radialGradient>
	<path class="st66" d="M833.69,615.15c1.07-0.88,1.84,0.35,3.18,0.94c0.39,0.17,1.79-0.21,2.13,0.03c1.5,1.05,2.47,3.17,2.08,3.61
		c-0.31,0.34-1.12-0.16-2.13-0.03c-0.74,0.1-1.66,0.87-2.14,0.87c-2.38-0.03-2.1-1.82-2.09-2.71S832.62,616.03,833.69,615.15z"/>
	<radialGradient id="SVGID_59_" cx="540.4145" cy="666.4073" r="112.6392" gradientUnits="userSpaceOnUse">
		<stop  offset="0" style="stop-color:#0096D8;stop-opacity:0"/>
		<stop  offset="0.8734" style="stop-color:#0096D8;stop-opacity:0.8734"/>
		<stop  offset="1" style="stop-color:#0096D8"/>
	</radialGradient>
	<path class="st67" d="M661.64,614.94c-2.18-0.03,0.17-0.03-2-1c-2.17-0.97-1.05-3.79-5.43-2.91c-4.38,0.89-3.4,9.37-5.59,10.28
		c-2.2,0.91-12.01-0.15-13.09-1.11c-1.08-0.96-4.33-2.88-6.52-2.91c-2.18-0.03-1.13,2.81-2.24,4.68c-1.12,1.87-4.37-0.06-4.34-1.94
		s-2.16-1.91-2.15-2.85c0.01-0.94,4.39-1.83,3.32-3.72c-1.07-1.9,1.13-2.81,0.06-4.71c-1.07-1.9,0.15-11.29-2.05-10.38
		c-2.2,0.91-8.73-1.05-11.99-2.04c-3.26-0.98-6.49-4.79-9.77-4.83c-3.28-0.04,2.15,2.85-0.07,5.65s-2.17-0.97-3.29,0.9
		s1.04,3.78-0.05,3.76c-1.09-0.01-2.2,0.91-3.3,1.84s1.81,4.06,1.03,4.72c-3.31,2.78-4.37-0.06-6.56,0.86
		c-2.2,0.91-6.59,2.74-6.55-0.08c0.04-2.82-1.07-1.9-3.25-1.92c-2.18-0.03-5.44-1.95-4.32-3.82s4.39-1.83,5.51-3.69
		s0.01-0.94,0.04-2.82c0.02-1.88,3.3-1.84,4.42-3.71c1.12-1.87-1-7.54-4.27-7.59c-3.28-0.04-3.23-3.81-6.5-3.85
		c-3.28-0.04-2.23,3.74-4.43,4.65c-2.2,0.91-3.29,0.9-5.45-1.01c-2.16-1.91,0.07-5.65-2.1-6.62s-2.23,3.74-3.31,2.78
		c-1.08-0.96,0.01-0.94,0.05-3.76c0.04-2.82-4.33-2.88-6.53-1.97c-2.2,0.91-6.57,0.86-6.55-0.08c0.01-0.94-5.45-1.01-9.83-0.13
		c-4.38,0.89-0.07,5.65-3.35,5.61c-3.28-0.04-5.47,0.87-7.67,1.78c-2.2,0.91-5.46-0.07-8.76,1.77c-3.3,1.84-9.93,7.4-11.03,8.33
		c-1.1,0.93-6.56,0.86-8.73-1.05c-2.16-1.91-6.52-2.91-8.7-2.94c-2.18-0.03-4.4,2.77-5.5,2.75c-1.09-0.01-4.33-2.88-5.44-1.95
		s-1.14,3.75-4.42,3.71c-3.09-0.04-6.56,0.86-7.65-0.1c-1.08-0.96,0.04-2.82,0.05-3.76s-4.34-1.94-5.45-1.01
		c-1.1,0.93-1.15,4.69-3.34,4.66c-2.18-0.03-3.24-2.87-4.33-2.88c-1.09-0.01-3.29,0.9-4.36-1s-1.03-4.72-3.2-5.69
		c-2.17-0.97-5.46-0.07-7.63-1.04c-2.17-0.97-1.07-1.9-3.24-2.87c-2.17-0.97-2.21,1.85-4.39,1.83c-2.18-0.03-3.24-2.87-3.2-5.69
		c0.04-2.82-1.03-4.72-4.33-2.88c-3.3,1.84-3.29,0.9-7.67,1.78c1.06,2.84-1.18,6.57-0.11,8.47s5.45,1.01,7.62,1.98
		s4.32,3.82,5.39,5.72c1.07,1.9,4.32,3.82,5.4,4.78c1.08,0.96,4.36,1,8.73,1.05c4.37,0.06,1.06,2.84-0.06,4.71
		c-1.12,1.87,2.21-1.85,4.37,0.06c2.16,1.91-1.12,1.87-0.05,3.76c1.07,1.9,4.39-1.83,6.55,0.08c2.16,1.91,3.19,6.63,3.14,10.4
		c-0.05,3.76,1.06,2.84,4.37,0.06s7.62,1.98,7.61,2.92c-0.01,0.94-2.23,3.74,1.03,4.72c3.26,0.98,1.12-1.87,3.3-1.84
		s2.18,0.03,3.24,2.87c1.06,2.84,6.58-1.8,9.77,4.83c0.9,1.88,1.01,3.36,0.67,4.57c0.13,0.05,0.26,0.1,0.37,0.15
		c4.34,1.94,9.81,2.01,6.44,8.56c-3.36,6.55,2.11,5.68,3.14,10.4c1.03,4.72,4.3,5.7,5.41,3.84c0.44-0.73,1.56-3.05,2.99-3.24
		c2.24-0.31,8.49-1.47,11.14-0.86c4.36,1,0.12-5.06,5-5c4.37,0.06-4.14,4.33-2.11,5.48c1.82,1.03,9.08-3.18,11.11-0.48
		c4.3,5.7,3.14,4.25,2,8c-1.1,3.62-5.13,5.82-0.27,7.84c1.98,0.82-0.85,4.54,0.27,7.16c1.11,2.63,8.69,3.26,7,7
		c-0.74,1.64,12.64,12.69,13,14c0.67,2.43,1.97,8.64,5,12c3.03,3.36,5.95,2.86,7,6c2,6-5.5,0.75-7,2c-0.74,0.61-6.28,3.99-6,6
		c0.34,2.46,6.63,3.63,6.76,4.48c0.5,3.3-3.59,5.7-3.76,8.52s3.58,6.07,2.44,9.35c-0.85,2.46,1.44,1.62,3.56,3.65
		c3.52,3.38,6.31,6.58,7,6c1.1-0.93,3.02-3.3,0.85-4.27c-2.17-0.97-4.87-2.85-4.85-4.73c0.02-1.88,0.04-4.33,1.15-5.26
		s2.16,1.91,3.25,1.92c1.09,0.01-2.15-2.85,1.14-3.75c3.29-0.9,7.15-8.68,11.46-3.92c2.02,2.23,6,2,3,9c-0.6,1.39-2.84,1.35-3,3
		c-0.16,1.65-0.31,12.42,2,13c4,1,6.99-0.06,7-1s1.91-6.01,3-6c1.09,0.01,1.82-4.03,4-4c2.18,0.03,5.9-2.07,7-3
		c1.1-0.93,1.08,0.96,0,0c-1.08-0.96-0.04,2.82,0,0c0.04-2.82-4.13-3.19-3-6s2.41-1.59,4.62-3.44c2.21-1.85,0.19-2.64,2.38-3.56
		c0.95-0.4-1.47-1.4-1-3c0.29-0.97,1.14-1.96,2-3c1-1.21,1.99-2.43,2-3c0.02-1.88-3.62-0.85-5.79-1.82
		c-1.75-0.78-1.74-1.96-1.01-3.05c0.73-1.1-0.83-1.11,0.27-1.57c2.2-0.91-0.73-9.54,2.53-8.56c1.63,0.49,6.19,0.32,8-1
		c1.81-1.32,0.86-3.79,1.96-4.25c2.2-0.91,9.31-3.71,6.04-3.75c-5.46-0.07-10.73-0.12-9.62-1.05c1.1-0.93-0.71-0.9,0.4-2.77
		c1.12-1.87,8.45-5.53,6.28-6.5c-2.17-0.97-2.1-1.07-3.21-0.15s1.32,1.44-0.85,0.47c-2.17-0.97-2.5-1.46-2.49-2.4
		s-6.54-1.03-7.65-0.1c-1.1,0.93-1.08-0.96-3.25-1.92c-2.17-0.97-3.25-1.92-1.06-2.84c1.1-0.46,2.73,0.27,4.37,0.17
		s3.29-1.02,4.38-1c2.18,0.03,2.21-1.85,0.05-3.76c-2.16-1.91-1.07-1.9-1.04-3.78s2.17,0.97,5.5-2.75c0.74-0.83,3.22-2.45,4.43-4.1
		c1.2-1.66,1.13-3.35,1.14-4.3c0.02-1.88-2.16-1.91-5.44-1.95c-3.28-0.04-2.17-0.97-1.06-2.84s6.55,0.08,4.39-1.83
		c-2.16-1.91-5.41-3.84-2.12-4.73c3.29-0.9,3.62,2.98,6.84,7.73c3.22,4.75,8.66,5.76,9.78,3.89s0.04-2.82,3.32-3.72
		c3.29-0.9,1.08,0.96,1.03,4.72c-0.05,3.76,7.67-1.78,6.55,0.08s-4.4,2.77-4.43,4.65c-0.02,1.41,1.79,4.2,4.1,3.79
		c0.77-0.14,1.62-2.3,2.44-2.76c3.3-1.84,7.24,3.87,10.53,2.97c0,0,0.04-2.82,0.06-4.71c0.02-1.88-4.32-3.82-1.04-3.78
		c3.28,0.04,2.21-1.85,1.13-2.81s3.3-1.84,1.13-2.81s-5.47,0.87-4.37-0.06s5.95-7.07,3.77-8.04c-2.17-0.97-0.93-4.1-2-6
		c-1.07-1.9-0.12-4.13,1-6s2.27-4.38,3.37-5.31c1.1-0.93-0.89-3.79,0.05-3.76c2.58,0.07,6.56,0.95,6.58-0.93
		c0.02-1.88,4.79-9.15,7-11C670.85,616.09,663.82,614.97,661.64,614.94z"/>
	<radialGradient id="SVGID_60_" cx="624.7057" cy="680.7205" r="4.4468" gradientUnits="userSpaceOnUse">
		<stop  offset="0" style="stop-color:#0096D8;stop-opacity:0"/>
		<stop  offset="0.8734" style="stop-color:#0096D8;stop-opacity:0.8734"/>
		<stop  offset="1" style="stop-color:#0096D8"/>
	</radialGradient>
	<path class="st68" d="M620.5,684.03c-0.51-0.45-0.07-1.58,0.04-2.82c0.12-1.36-1.07-1.9,0.04-2.82c0.59-0.49,1.6,0.03,2.18,0.03
		c0.98-0.01,1.51-0.33,2.2-0.91c1.1-0.93,3.3-1.84,3.28,0.04c-0.01,0.8,1.17,0.23,1.08,0.96c-0.06,0.49-0.65,1.12-1.12,1.87
		s-0.8,1.6-1.12,1.87c-0.65,0.55-1.66-0.03-2.18-0.03c-0.88,0-1.1,0.34-1.1,0.93c-0.01,0.53-0.02,1.88-1.12,1.87
		S620.97,684.45,620.5,684.03z"/>
	<radialGradient id="SVGID_61_" cx="580.7902" cy="766.228" r="5.2991" gradientUnits="userSpaceOnUse">
		<stop  offset="0" style="stop-color:#0096D8;stop-opacity:0"/>
		<stop  offset="0.8734" style="stop-color:#0096D8;stop-opacity:0.8734"/>
		<stop  offset="1" style="stop-color:#0096D8"/>
	</radialGradient>
	<path class="st69" d="M577.07,760.52c0.87,0.01,2.6,0.88,4.33,2.6s4.26,7.7,4.25,8.54c-0.01,0.51-1.19,0.31-1.82-0.6
		c-0.41-0.6-0.96-1.13-1.65-1.14c-1.74-0.02-2.62-0.03-3.47-1.74c-0.85-1.71-0.84-2.56-0.82-4.26c0.02-1.9-0.85-1.71-1.71-2.57
		C575.57,760.75,576.19,760.51,577.07,760.52z"/>
	<radialGradient id="SVGID_62_" cx="601.1562" cy="760.5512" r="6.9327" gradientUnits="userSpaceOnUse">
		<stop  offset="0" style="stop-color:#0096D8;stop-opacity:0"/>
		<stop  offset="0.8734" style="stop-color:#0096D8;stop-opacity:0.8734"/>
		<stop  offset="1" style="stop-color:#0096D8"/>
	</radialGradient>
	<path class="st70" d="M599.46,752.24c0,0,3.29-0.9,4.36,1c1.07,1.9,2.16,1.91,2.15,2.85c-0.01,0.47,0.26,1.18-0.57,1.88
		c-0.83,0.7-2.75,1.38-2.75,1.85c-0.01,0.94-1.12,1.87-0.04,2.82c1.08,0.96,1.02,5.66-0.07,5.65c-1.09-0.01-4.39,1.83-4.37-0.06
		s0.02-1.88-1.06-2.84c-1.08-0.96-1.06-2.84,0.05-3.76s0.02-1.88,1.13-2.81s2.2-0.91,2.22-2.8S598.34,754.11,599.46,752.24z"/>
	<radialGradient id="SVGID_63_" cx="612.2153" cy="454.4449" r="3.0128" gradientUnits="userSpaceOnUse">
		<stop  offset="0" style="stop-color:#0096D8;stop-opacity:0"/>
		<stop  offset="0.8734" style="stop-color:#0096D8;stop-opacity:0.8734"/>
		<stop  offset="1" style="stop-color:#0096D8"/>
	</radialGradient>
	<path class="st71" d="M610.64,457.94c1,0,4-4,4-5s0.24-2-2-2c-2,0-1,1-2,3C609.37,456.47,609.64,457.94,610.64,457.94z"/>
	<radialGradient id="SVGID_64_" cx="802.0186" cy="255.692" r="114.0788" gradientUnits="userSpaceOnUse">
		<stop  offset="0" style="stop-color:#0096D8;stop-opacity:0"/>
		<stop  offset="0.8734" style="stop-color:#0096D8;stop-opacity:0.8734"/>
		<stop  offset="1" style="stop-color:#0096D8"/>
	</radialGradient>
	<path class="st72" d="M892.98,182.39c-2.17-1.35-4.6-1.45-6.44-1.47c-1.54-0.02-2.08-0.96-2.06-1.9c0.01-0.93,1.75-1.21,2.11-1.88
		c0.8-1.48,1.32-2.82-1.05-2.85c-4.35-0.05-5.31-2.89-5.3-3.83s-2.13-3.81-1.02-5.69s-2.25-1.05-5.39-3.85
		c-1.08-0.96,1.1-0.93,0.03-2.84c-1.06-1.9-4.35-0.05-5.4-2.9c-0.74-2.02-1.05-2.85-2.1-6.65c-0.29-1.06-1.68-1.05-1.98-1.86
		c-0.76-2.07-0.43-4.38-1.19-5.75c-1.06-1.9-3.15-2.92-5.3-4.83s-3.24-0.93-4.31-1.89s-1.08-0.96-3.26-0.04s-3.36,0.9-4.41-1.95
		c-1.05-2.85-5.29-4.78-7.45-5.75c-2.16-0.97-1.12,2.82-3.31,4.69s-2.18,0.92-4.4,4.68c-0.83,1.42-0.93,2.62-1.13,3.77
		c-0.33,1.91-0.45,3.54-1.14,4.72c-1.11,1.88-3.29,2.8-3.3,3.75c-0.01,0.95,0.96,3.78-0.14,4.72c-1.1,0.93-5.1,2.08-7.13,1.82
		s-4.21-0.05-5.83-1.01c-1.63-0.97-3.25-0.4-4.35-0.05c-1.08,0.34-1.64,0.46-2.18,0.92c-1.1,0.93-0.25,2.29-1.12,2.82
		c-0.58,0.36-1.2-0.01-2.17-0.02c-1.09-0.01,0-2.13-1.05-2.85c-1.05-0.72-4.58-0.13-5.43-0.06c-1.09,0.08-0.45,2.08-1.12,2.82
		c-0.67,0.74-1.57,0.25-2.17-0.02c-1.18-0.53-2.23-3.89-3.2-4.77c-0.81-0.72-1.79-0.08-3.26-0.04c-1.81,0.05-4.5-0.53-5.78-0.84
		c0.15,0.22,0.31,0.41,0.47,0.58c1.47,1.52,2.04,1.49,2.02,3.06c-0.03,2.84-2.24,5.65-0.08,6.62c2.16,0.97,4.35,0.05,4.32,1.94
		c-0.02,1.89-0.02,1.89,1.04,3.8s1.01,6.63-2.25,6.6c-3.26-0.04-3.25-0.98-5.45,1.83c-2.21,2.81-2.23,4.7-2.23,4.7
		c2.14,2.86,3.25,0.98,2.14,2.86c-1.11,1.88-4.38,2.79-2.24,5.65c2.14,2.86,4.32,1.94,6.5,1.97c2.17,0.02,5.42,1.01,3.22,3.82
		c-2.21,2.81,1.03,4.74-1.16,6.61c-0.78,0.66-4.37,1.84-6.55,2.76c-2.18,0.92-3.32,5.64-2.24,5.65c1.09,0.01,4.32,1.94,2.13,3.81
		s-0.03,2.84-2.23,4.7s-2.19,1.87-5.45,1.83c-3.26-0.04-2.19,1.87-4.38,2.79c-2.18,0.92-6.55,2.76-6.55,2.76
		c-1.05-2.85,2.25-6.6-3.17-7.6c-5.42-1.01-8.71,1.43-8.77,6.52c-0.03,2.84-0.08,6.62,1,7.58s3.23,2.87,3.18,6.66
		s-0.09,7.57,0.97,10.42c1.05,2.85-1.21,10.39-2.31,12.27c-1.11,1.88-4.36,0.9-5.46,2.77c-1.11,1.88-2.22,3.76-0.05,4.73
		c2.16,0.97,3.26,0.04,5.41,1.95c2.15,1.92,0.99,8.52-0.11,9.46c-1.1,0.93-2.16-0.97-5.45,1.83c-3.29,2.8-1.14,4.72-3.32,5.64
		c-2.18,0.92-4.36,0.9-4.39,3.73s1.04,3.8-1.15,5.66s-11.09,19.74-13.3,22.55c-2.21,2.81-4.39,3.73-5.55,10.34
		s-3.35,7.53-2.33,13.22c1.02,5.69-0.15,13.24-4.54,16.97c-1.35,1.15,0.19,2.52-0.17,3.82c-0.39,1.42-2.04,1.83-2.87,2.86
		c-0.88,1.08-3.22,1.69-3.21,1.73c0.39,0.88,3.96,5.2,5,9c1.04,3.8,7.5,5.37,10.75,6.35c3.25,0.98,4.35,0.05,7.63-1.8
		c3.28-1.85,6.56-4.71,16.33-3.65c9.77,1.06,14.15,0.9,21.74,2.88c7.58,1.98,8.51,4.02,12.86,3.12c4.36-0.9,3.39-1.73,6.66-2.64
		c3.27-0.91,3.9-3.5,5.03-7.27c0.66-2.2,4.54-7.45,7.06-13.32c1.81-4.21,2.44-8.73,2.94-12.68c0.45-3.54,0.78-6.33,0-8
		c-1.3-2.79-4.19-3.19-3.65-4.01c0.87-1.3,2.74-4.29,3.15-5.66c1.13-3.77,5.75-6.06,9.57-8.65c2.74-1.86,8.06-7.75,12.85-11.65
		s9.02-5.8,9.59-7.68c1.13-3.77,11.02-20.69,12.16-25.41c1.14-4.72,3.36-8.47,3.41-13.2c0.03-2.99,0.04-3.78-3.17-7.6
		c-3.22-3.82,0.16-6.61-4.17-7.6s-6.53,0.87-10.86-0.12c-2.83-0.65-5.4-2.9-9.74-2.95c-2.31-0.03-4.28-0.9-5.17-0.83
		c-1.92,0.15-2.41-1.66-2.4-2.1c0.01-0.48,2.26-0.4,3.27-0.91c0.99-0.5,0.73-1.59,1.11-1.88c0.77-0.58,0.03-2.84,1.12-2.82
		s0.78,4.74,3.2,4.77c1.09,0.01,1.6-2.76,2.21-2.81c0.63-0.06,0.13,2.01,1.05,2.85c0.66,0.6,1.68-0.93,2.18-0.92
		c1.7,0.02-0.03,2.3-0.04,3.78c-0.01,1.35,1.68,1.91,3.24,1.93c3.26,0.04,4.24,0.05,9.78,0.11c2.17,0.02,3.17,0.02,6.48-3.72
		c3.3-3.75,3.29-2.68,3.34-6.58c0.02-1.89,0.03-2.84,3.32-5.64c1.86-1.58,2.62-3.5,2.24-5.65c-0.29-1.66-0.63-3.57,0.05-4.73
		c0.67-1.13,2.32-0.37,3.27-0.91c0.63-0.36,0.53-1.82,1.12-2.82c0.44-0.75,0.6-1.54,2.28-1.85c2.54-0.47,6.76,0.57,7.42,0.01
		c1.1-0.93,2.32-4.64,0.18-7.5c-1.07-1.43-2.03-0.97-2.15-1.92c-0.12-0.95,0.58-3.3,1.14-4.72c1.12-2.82,1.22-3.76,3.39-3.73
		c3.26,0.04,5.35,0.05,5.32,1.94c-0.01,1.12-2.5,1.85-2.21,2.81c0.12,0.4-0.66,1.83-0.02,1.89s2.71-1.25,3.27-0.91
		c1.12,0.68,0.38,2.55,1.05,2.85c0.67,0.3,2.31-0.56,3.18-0.92c0.81-0.33,1.85-0.13,2.18-0.92c0.47-1.13,0.24-3.01,1.13-3.77
		c0,0,2.27-0.91,4.44-0.88c4.48,0.05,5.39-3.73,6.52-7.5c1.13-3.77,1.11-1.88,1.13-3.77C898.41,187.53,895.93,184.21,892.98,182.39z
		"/>
	<radialGradient id="SVGID_65_" cx="876.5598" cy="215.3582" r="8.1907" gradientUnits="userSpaceOnUse">
		<stop  offset="0" style="stop-color:#0096D8;stop-opacity:0"/>
		<stop  offset="0.8734" style="stop-color:#0096D8;stop-opacity:0.8734"/>
		<stop  offset="1" style="stop-color:#0096D8"/>
	</radialGradient>
	<path class="st73" d="M873.31,204.42c0,0-1.2,9.45-0.14,12.3c1.05,2.85,3.16,8.55,5.32,9.52c2.16,0.97,2.3-11.32,1.24-13.23
		S875.48,205.39,873.31,204.42z"/>
	<radialGradient id="SVGID_66_" cx="871.2625" cy="222.6923" r="6.5465" gradientUnits="userSpaceOnUse">
		<stop  offset="0" style="stop-color:#0096D8;stop-opacity:0"/>
		<stop  offset="0.8734" style="stop-color:#0096D8;stop-opacity:0.8734"/>
		<stop  offset="1" style="stop-color:#0096D8"/>
	</radialGradient>
	<path class="st74" d="M877.4,227.17c-0.01,0.95-6.56,3.71-8.71,1.79c-1.52-1.35-2.81-2.67-3.22-3.82
		c-0.33-0.94,0.51-1.99,0.03-2.84c-1.06-1.9,0.27-3.88,2.23-4.7c2.18-0.92,1.94-1.87,4.37-1.84c0.6,0.01,1.07,2.8,2.11,5.7
		C875.06,223.84,877.41,226.23,877.4,227.17z"/>
	<radialGradient id="SVGID_67_" cx="849.9832" cy="258.5428" r="2.8365" gradientUnits="userSpaceOnUse">
		<stop  offset="0" style="stop-color:#0096D8;stop-opacity:0"/>
		<stop  offset="0.8734" style="stop-color:#0096D8;stop-opacity:0.8734"/>
		<stop  offset="1" style="stop-color:#0096D8"/>
	</radialGradient>
	<path class="st75" d="M849.91,255.23c0,0-2.17-0.02-2.19,1.87c-0.02,1.89,0.75,4.74,2.12,4.75c1.09,0.01,1.1-0.93,1.11-1.88
		s0.02-1.89,1.12-2.82C852.84,256.49,851,255.24,849.91,255.23z"/>
</g>
<g id="图层_7">
	<text transform="matrix(1 0 0 1 601.9972 208.1915)" class="st2 st3 st76">永嘉县</text>
	<text transform="matrix(1 0 0 1 575.9972 345.1915)" class="st2 st3 st76">鹿城区</text>
	<text transform="matrix(1 0 0 1 601.9972 405.1915)" class="st2 st3 st76">瓯海区</text>
	<text transform="matrix(1 0 0 1 698.9972 432.1915)" class="st2 st3 st76">龙湾区</text>
	<text transform="matrix(1 0 0 1 644.9972 474.1915)" class="st2 st3 st76">瑞安市</text>
	<text transform="matrix(1 0 0 1 587.9972 543.1915)" class="st2 st3 st76">平阳县</text>
	<text transform="matrix(1 0 0 1 607.9972 593.1915)" class="st2 st3 st76">龙港市</text>
	<text transform="matrix(1 0 0 1 544.9972 645.1915)" class="st2 st3 st76">苍南县</text>
	<text transform="matrix(1 0 0 1 309.9972 601.1915)" class="st2 st3 st76">泰顺县</text>
	<text transform="matrix(1 0 0 1 387.9972 488.1915)" class="st2 st3 st76">文成县</text>
	<text transform="matrix(1 0 0 1 789.9972 428.1915)" class="st2 st3 st76">洞头区</text>
	<text transform="matrix(1 0 0 1 768.9972 296.1915)" class="st2 st3 st76">乐清市</text>
	<text transform="matrix(1 0 0 1 727.9022 534.325)" class="st77 st3 st4">大北列岛</text>
	<text transform="matrix(1 0 0 1 825.9022 563.325)" class="st77 st3 st4">北麂列岛</text>
	<text transform="matrix(1 0 0 1 781.9022 611.325)" class="st77 st3 st4">南麂列岛</text>
</g>
<g id="图层_3">
	<path class="st78" d="M670.64,146.94c0,0,13,10,14,16s2,8,0,14s-2,9,3,9s10-12,13-9s9,8,5,12s0,10-6,15s-6,4-7,12s0,13,5,7
		s8-22,23-23s23,11,29,9s8-3,11-1s3,4,7,4s5,2,18,14s26,12,30,12s36-20,38-26s0-15,4-19s14-6,14-6"/>
	<path class="st78" d="M506.64,554.94c0,0-2,1-6,0s-8-3-10,0s-13-8-13-10s6-9,14-11s26-6,28-11s-19-32-17-39s14-2,20-4s7,10,10,9
		s0-8,6-9s25,0,28,4s1,27,7,29s-5-34,0-38s15,11,18,7"/>
</g>
<g id="图层_4">
	<path class="st79" d="M811.64,381.94c0,0,6-7,10-5s3,5,0,9s-16,10-10,12s10-4,18,0s7,1,14,0s12,3,18,0s12-12,9-16s15,0,20-2"/>
	<path class="st79" d="M843.64,397.94c0,0,2,10,6,13s-3,7-2,11s7,8,0,10s-22,8-26,7s-7-4-10-4s-1,0-5,4"/>
	<path class="st79" d="M850.64,470.94c0,0,13-6,7-11s-21,1-20-3s14-1,14-6s-2-12,8-6s16-3,11-6s-23-7-23-7"/>
</g>
<g id="图层_5">
	<path class="st6" d="M656.64,134.94c0,0,23,22,24,26s0,10,3,16s5,12,10,13"/>
	<path class="st6" d="M705.64,203.94c0,0,6-7,11-6s7,0,9,1s3,0,3,0l-2-3c0,0,9-6,11-5s8.76,3,11,3c1,0,2,0.76,2,3c0,3,0,8,0,8"/>
	<path class="st6" d="M816.64,190.94c0,0-5-1-3-3s12-7,12-7"/>
	<path class="st6" d="M857.64,181.94c0,0-1,18-2,23s-7,13-13,18s-21,15-33,17s-15,0-15,0"/>
	<path class="st6" d="M822.64,250.94c0,0,16-5,18-2s-2,4-2,7"/>
	<path class="st6" d="M761.64,231.94c0,0,5,2,4,6s-2,11,2,10s6-4,8-2s0,6,0,6"/>
	<path class="st6" d="M671.64,207.94c0,0,11,3,13,7s3,6,7,5s2-3,2-4s-2-6-2-6"/>
	<path class="st6" d="M662.64,241.94c0,0-7-7-14-10s-13,6-10,10s9,13,19,12"/>
	<path class="st6" d="M648.64,244.94c0,0,4,5,11,5s8,1,10,2s2,3,5,4"/>
	<path class="st6" d="M736.64,314.94c0,0,9-2,11,0s2,4,0,5s-9,2-11,3"/>
	<path class="st6" d="M572.64,283.94c0,0,7,8,9,14s4,10,4,10"/>
	<path class="st6" d="M566.64,322.94c0,0,2-6,6-7s7-2,8,0s1,7,1,7"/>
	<path class="st6" d="M536.64,374.94c0,0,0-10,5-12s14-2,16-3"/>
	<path class="st6" d="M559.64,366.94c0,0-14,4-15,8s3,8,3,8"/>
	<path class="st6" d="M693.64,368.94c0,0,4,4,7,6s-2,4,0,5s7,4,7,4"/>
	<path class="st6" d="M557.64,405.94c0,0,11,0,11,4s-4,14-2,19s5.58,15.76,23,17c14,1,23-1,25-2s-4-14-2-16s4,11,8,13s10,3,9,10
		s-3,14,0,15s5,1,6,4"/>
	<path class="st6" d="M644.64,419.94c0,0,1-5,4-5s3,0,4,3C653.9,421.74,651.64,424.94,644.64,419.94z"/>
	<path class="st6" d="M705.64,394.94c0,0-2,3,0,5s7,5,9,6"/>
	<path class="st6" d="M729.64,418.94c0,0-4,5-4,7s0,4,4,3s8-6,8-6"/>
	<path class="st6" d="M753.64,399.94c0,0-7-4-5-5s3-5,5-5s1,4,3,3s4-2,7,0"/>
	<path class="st6" d="M811.64,383.94c0,0,8-7,10-5s9,5,4,7s-10,5-10,7s-1,5,2,5s5-4,8-2"/>
	<path class="st6" d="M890.64,378.94c0,0-16,0-19,2s2,6,0,9"/>
	<path class="st6" d="M849.64,422.94c0,0-2,4-8,8s10-5,12-2"/>
	<path class="st6" d="M859.64,435.94c0,0-3,2-2,4s7-3,10-4"/>
	<path class="st6" d="M847.64,444.94c0,0,5,8,2,10s-7,3-13-1"/>
	<path class="st6" d="M857.64,453.94c0,0,3,12-8,19"/>
	<path class="st6" d="M818.64,617.94c0,0,9,6,25,5"/>
	<path class="st6" d="M519.64,423.94c0,0,6-1,10-3s4,1,12,0"/>
	<path class="st6" d="M562.64,476.94c0,0,2,5,2,9s5,2,6,0s0-11,0-11"/>
	<path class="st6" d="M577.64,481.94c0,0,10,2,6,6s-7,4-6,8s6,12,3,15s-13,3-16,2s3-15-4-15s-10-5-3-6s6,0,9-1"/>
	<path class="st6" d="M528.64,481.94c0,0,2,5,6,7s7,2,6,0s-1-5,0-7s5-3,4,0s-1,8,0,11s0,7-3,5s-3-6-6-6"/>
	<path class="st6" d="M596.64,518.94c0,0,6,2,7,0s-1-13,2-14s9-6,13,0s0,8,0,8"/>
	<path class="st6" d="M564.64,533.94c0,0,2,10,6,13s8,9,8,9"/>
	<path class="st6" d="M592.64,580.94c0,0,10,2,16,0s17-6,19-5s3,5,2,6s-5,2-5,2"/>
	<path class="st6" d="M611.64,609.94c0,0,7,11,9,8s4-1,4,0s0,5,0,5"/>
	<path class="st6" d="M592.64,680.94c0,0,8,3,9,6s6-4,8-2s-4,5-1,5s6,2,5,3s-5,2-5,4s4,0,5,3"/>
	<path class="st6" d="M534.64,670.94c0,0,11,1,14,4s11,15,11,18"/>
	<path class="st6" d="M573.64,716.94c0,0,3-7,5-7s14,0,16-1s9-1,7,4s-3,8,0,11"/>
	<path class="st6" d="M457.64,600.94c0,0,11,12,16,13s11,4,17,0s14-1,19,9"/>
	<path class="st6" d="M400.64,644.94c0,0,8,4,6,6s-7,4-10,5s-4,5-7,4s-7-3-7-3"/>
	<path class="st6" d="M411.64,659.94c0,0-7.44-2.16-9.72-6.08"/>
	<path class="st6" d="M401.64,663.94c0,0,2-7-5-7"/>
	<path class="st6" d="M387.64,622.94c0,0-2-5-5-4s-8,2-8,4s3,7-7,7"/>
	<path class="st6" d="M342.64,618.94c0,0-5,2-5,5s-2,5-2,6s2-2,3,0s0,3,0,4s2,4,0,4s-3-3-3-3"/>
	<path class="st6" d="M335.64,569.94c0,0,5,4,7,5s0,1,3,0s0,1,3,2s5,8,6,7"/>
	<path class="st6" d="M278.64,506.94c0,0,35.07-12.66,30,19c-4,25-33,3-35-15"/>
	<path class="st6" d="M309.64,456.94c0,0,10,3,13,9s5,9,5,9"/>
	<path class="st6" d="M358.64,432.94c0,0-4,10-2,15s19,33,28,37"/>
	<path class="st6" d="M430.64,421.94c0,0,3,0,6,2s4,7,9,9"/>
	<path class="st6" d="M374.64,418.94c0,0,7.12-8.65-4-15c-7-4-4,15,0,15"/>
	<path class="st6" d="M396.64,426.94c0,0-4-3-6,2s0,6,3,7s7-1,5-5"/>
	<path class="st6" d="M384.64,441.94c0,0,17-5,20,6s-7,14-11,13s-18-3-11-16"/>
	<path class="st6" d="M509.64,531.94c0,0-3,4-5,2s-1-5-3-4s-7,3-5,5s5,3,4,5s-4,5-7,4s-6-6-7-4s-2,2-1,4s5,6,5,6"/>
	<path class="st6" d="M505.64,558.94c0,0-8-6-13-3s-8,12-13,11s-13-6-13-6"/>
	<path class="st6" d="M477.64,572.94c0,0,4,6,0,7s-11,0-9,2s6,3,9,2s2-3,6-2s8,2,8,2"/>
</g>
</svg>
